<svg width="382" height="126" viewBox="0 0 382 126" fill="none" xmlns="http://www.w3.org/2000/svg">
<path d="M277.652 103.514V78.0481L326.226 1.65039H349.334V35.6049H336.13L309.956 77.1049V78.0481H381.638V103.514H277.652ZM336.365 122.378V95.7328L337.073 84.6504V1.65039H367.726V122.378H336.365Z" fill="#FF9957"/>
<path d="M190.236 125.679C179.271 125.64 169.8 123.105 161.822 118.075C153.845 113.044 147.694 105.794 143.371 96.3224C139.048 86.8513 136.907 75.4939 136.946 62.25C136.985 48.9669 139.147 37.688 143.43 28.4134C147.753 19.1387 153.884 12.0845 161.822 7.25071C169.8 2.4169 179.271 0 190.236 0C201.2 0 210.671 2.43656 218.649 7.30967C226.627 12.1435 232.777 19.1977 237.1 28.4723C241.423 37.7469 243.565 49.0062 243.525 62.25C243.525 75.5724 241.364 86.9692 237.041 96.4403C232.718 105.911 226.568 113.162 218.59 118.192C210.652 123.183 201.2 125.679 190.236 125.679ZM190.236 99.0341C195.895 99.0341 200.532 96.0867 204.148 90.1918C207.802 84.2576 209.61 74.9437 209.571 62.25C209.571 53.9579 208.746 47.1787 207.095 41.9126C205.444 36.6465 203.165 32.7559 200.257 30.2408C197.349 27.6863 194.008 26.4091 190.236 26.4091C184.577 26.4091 179.959 29.2779 176.383 35.0156C172.806 40.7533 170.979 49.8314 170.9 62.25C170.861 70.6993 171.667 77.6553 173.317 83.1179C174.968 88.5412 177.247 92.5497 180.155 95.1435C183.103 97.7372 186.463 99.0341 190.236 99.0341Z" fill="#FF9957"/>
<path d="M0 103.514V78.0481L48.5739 1.65039H71.6818V35.6049H58.4773L32.304 77.1049V78.0481H103.986V103.514H0ZM58.7131 122.378V95.7328L59.4205 84.6504V1.65039H90.0739V122.378H58.7131Z" fill="#FF9957"/>
</svg>
