<svg width="421" height="443" viewBox="0 0 421 443" fill="none" xmlns="http://www.w3.org/2000/svg">
<g clip-path="url(#clip0_1_3197)">
<path d="M160.397 73.3726C162.041 68.1434 162.955 64.6932 165.304 59.6582C175.32 38.2011 194.19 24.862 211.768 15.0766C218.154 11.5217 225.404 8.09387 232.165 5.95654C222.508 17.8426 214.446 29.5691 209.67 45.8771C214.133 42.1272 217.025 39.6241 221.961 36.6693C240.002 25.8717 267.089 18.4025 287.023 18.5448C284.527 21.397 277.538 25.2186 274.104 27.8801C260.457 38.4582 244.121 52.6315 234.118 68.2967C240.556 63.5708 248.347 59.7977 255.464 57.2084C277.296 49.2656 298.708 50.2062 320.512 57.6392C321.848 58.0945 323.239 58.5634 324.547 59.1508C318.153 60.1664 311.615 61.0737 305.276 62.4357C289.354 65.8564 270.153 74.7906 256.768 86.3875C261.249 84.8464 265.755 83.2495 270.335 82.2113C283.042 79.3312 296.812 79.4637 309.526 82.2837C313.208 83.1002 319.14 84.7392 322.408 86.6874C310.029 88.9191 288.12 91.4657 277.459 100.086C295.219 97.8143 312.139 96.3285 329.872 99.3582C333.112 99.9116 338.468 100.232 341.42 101.767C341.958 103.947 342.15 105.489 342.152 107.762C342.155 110.502 342.346 113.221 341.312 115.745C340.82 116.947 339.448 119.005 338.278 118.864C337.814 117.182 338.838 117.151 337.572 113.913L337.398 114.201C334.984 118.271 333.778 123.439 332.557 128.221C331.36 132.906 329.483 142.844 327.472 146.486C326.928 147.47 326.294 148.183 325.452 148.743C320.032 152.354 305.455 155.425 299.099 156.649C282.372 159.869 261.202 161.318 244.904 154.619C239.732 152.493 234.264 148.897 229.885 144.83C227.634 142.742 225.464 140.358 223.483 137.871C218.924 132.152 216.513 128.856 209.797 128.505C208.079 128.415 206.268 128.402 204.565 128.727C201.46 129.317 199.524 130.785 197.7 133.992C195.446 137.956 193.729 142.224 191.239 146.015C181.324 161.112 166.832 166.488 152.059 169.717C140.963 172.142 108.31 175.506 99.1183 167.448C93.2676 162.318 88.4867 147.916 81.769 141.065C81.099 141.083 78.919 141.265 78.497 140.567C77.7136 139.272 74.7233 132.606 76.5286 131.351C81.6165 127.816 88.203 126.85 93.4495 123.779L92.6677 122.993C94.0557 121.07 119.988 116.614 124.114 115.876L125.12 117.038C127.507 116.396 134.268 115.999 137.024 115.778C149.646 114.72 162.314 114.902 174.913 116.326C181.742 117.042 188.963 118.509 195.782 118.889C204.178 119.358 213.258 117.962 221.661 117.324C225.178 117.057 228.815 115.066 232.203 113.953C241.648 110.446 251.02 106.793 260.627 104.028C261.848 103.676 265.977 102.591 266.597 101.67C265.795 100.805 264.004 101.853 263.122 101.143C263.127 99.8716 265.623 97.3617 266.48 96.0078C262.698 97.9643 259.797 100.931 256.375 102.718C251.972 105.018 246.045 105.853 241.471 107.731C234.744 109.876 227.838 112.598 221.076 114.393C216.31 115.657 210.111 115.516 205.188 115.899C202.789 116.085 199.362 116.459 197.057 116.347C193.154 113.516 189.484 106.748 186.417 102.509C185.875 106.594 185.613 111.348 185.053 115.065C182.624 114.988 182.24 114.571 180.412 112.452C177.643 109.242 170.837 94.4911 168.276 92.7099C166.121 93.0727 167.703 101.843 168.162 103.686C169.032 107.17 170.257 110.726 171.312 114.139C166.049 113.079 164.352 111.346 161.265 105.98C160.339 104.383 159.44 102.759 158.572 101.112C158.922 104.889 159.707 110.108 161.404 113.344C155.278 113.261 152.476 113.855 147.838 107.803C147.727 107.658 147.619 107.512 147.513 107.362C147.673 109.092 147.773 110.247 148.1 111.942C144.917 110.786 142.811 108.582 140.111 106.208C140.668 108.106 142.846 111.759 142.679 113.058C139.353 115.169 99.6351 80.7877 92.5382 77.4994C90.6186 76.61 70.4979 64.9156 69.6172 63.8264L69.7088 63.4977C73.0595 62.8107 97.6822 72.5359 101.969 74.8027C100.95 73.2323 98.7903 69.4247 98.7635 67.4111C99.5888 66.1651 103.323 69.1966 104.428 69.9194C113.713 75.9975 122.515 83.2433 130.449 91.848C131.782 93.2864 137.433 100.178 138.301 100.342C138.464 99.7617 138.414 100.168 138.352 99.6841C135.793 79.5822 149.418 59.6515 162.346 50.1594C162.973 55.7218 161.006 57.8259 160.487 63.3377C160.185 66.56 160.314 70.113 160.397 73.3726Z" fill="#091B2F"/>
<path d="M124.115 115.876L125.12 117.038C124.717 117.557 124.366 117.65 123.788 117.75C118.329 118.703 112.922 119.773 107.488 120.916L99.0016 122.737C97.6182 123.046 94.7745 123.861 93.4499 123.779L92.668 122.993C94.056 121.07 119.988 116.614 124.115 115.876Z" fill="#091B2F"/>
<path d="M298.098 104.828C302.686 104.498 308.633 105.25 313.208 105.947C315.698 106.327 320.199 107.628 321.591 110.441C324.695 116.699 324.485 125.636 323.616 132.614C323.108 136.681 322.173 142.237 319.402 144.581C315.931 147.518 310.805 149.014 306.739 150.098C290.99 154.299 271.852 156.618 255.944 153.245C250.569 152.21 244.142 149.643 239.297 145.662C236.286 143.188 226.215 128.007 229.358 122.715C230.624 120.585 236.322 118.158 238.679 117.134C251.851 111.416 265.63 107.688 279.505 105.971C285.297 105.28 292.274 105.094 298.098 104.828Z" fill="#091B2F"/>
<path d="M290.589 106.636C295.433 105.805 306.282 106.778 310.924 108.601C307.932 112.54 304.324 116.489 301.187 120.421C300.404 121.455 299.593 122.407 298.77 123.391C293.644 122.123 287.799 121.472 282.598 120.412C284.229 115.79 286.034 111.269 288.007 106.863L290.589 106.636Z" fill="#F3F9FB"/>
<path d="M281.017 124.618C284.121 124.745 291.828 126.722 294.947 127.65C294.05 128.971 293.248 130.252 292.399 131.621L291.949 132.274C290.993 132.776 281.145 129.805 279.254 129.33C279.724 127.797 280.429 126.112 281.017 124.618Z" fill="#F3F9FB"/>
<path d="M150.263 121.256C153.852 120.343 157.937 120.292 161.604 120.413C162.714 120.451 167.855 120.784 168.495 121.184C172.159 121.393 183.628 122.807 186.499 124.348C187.997 134.002 184.603 147.455 178.2 153.491C168.709 162.438 156.366 164.731 144.921 166.863C135.334 168.649 125.157 169.431 115.516 168.023C109.135 167.096 103.618 165.183 99.824 158.185C96.4308 152.028 91.2907 142.079 92.1501 134.265C95.3208 130.219 101.309 128.756 105.532 127.291C120.186 122.209 135.093 121.079 150.263 121.256Z" fill="#091B2F"/>
<path d="M150.263 121.256C153.852 120.343 157.937 120.292 161.604 120.413C162.714 120.451 167.855 120.784 168.495 121.184C167.323 121.238 164.621 120.954 163.781 121.727C167.175 122.049 169.56 122.548 172.818 123.46C168.777 127.684 162.78 134.394 159.093 138.988C154.259 137.985 149.481 137.314 144.652 136.372C145.896 132.559 148.492 126.373 150.15 122.706C150.54 121.841 151.579 121.847 152.417 121.717C151.728 121.104 151.152 121.251 150.263 121.256Z" fill="#F3F9FB"/>
<path d="M150.266 121.256C153.854 120.343 157.939 120.292 161.607 120.413C162.717 120.451 167.858 120.784 168.498 121.184C167.326 121.238 164.624 120.954 163.783 121.727C161.121 121.312 155.242 121.587 152.419 121.717C151.73 121.104 151.155 121.251 150.266 121.256Z" fill="#091B2F"/>
<path d="M143.707 140.15C147.876 140.578 151.945 141.502 156.129 141.941C155.247 143.207 154.082 144.61 153.122 145.824C153.025 145.954 152.689 146.421 152.606 146.439C150.588 146.873 143.533 145.038 141.684 144.624C142.384 142.777 142.818 141.878 143.707 140.15Z" fill="#F3F9FB"/>
<path d="M88.4368 129.867C88.8169 129.876 89.1399 130.022 89.5154 130.145L89.6981 130.546C88.6412 133.181 84.1024 134.702 81.8875 134.786C81.0893 134.638 81.3578 134.867 80.8281 134.33L80.8816 133.845C82.2018 131.911 86.4177 130.252 88.4368 129.867Z" fill="#F3F9FB"/>
<path d="M327.037 103.014C327.917 102.931 328.802 103.024 329.659 103.29C330.652 103.593 332.403 104.349 332.953 105.508L332.856 105.979C332.184 106.52 331.641 106.445 330.834 106.502C329.3 106.255 325.481 105.649 324.504 104.089L324.636 103.611C325.37 103.054 326.156 103.103 327.037 103.014Z" fill="#F3F9FB"/>
<path d="M349.082 153.681C330.822 148.866 331.9 121.4 348.655 115.648C352.788 114.309 358.002 118.375 361.846 119.287C373.557 122.063 400.669 138.077 403.117 154.484C396.877 145.933 388.216 139.664 380.325 133.789C378.637 132.531 374.262 129.353 372.517 128.813C370.186 128.091 366.318 128.602 363.465 128.078C358.763 127.215 354.493 125.782 349.859 124.617C348.481 124.27 344.371 123.197 343.349 123.884L343.327 124.318C344.373 126.011 355.913 129.516 358.516 130.48C363.702 132.4 372.571 133.238 377.307 136.461C383.032 140.361 389.591 145.702 394.535 151.029C397.125 153.94 399.634 158.375 402.11 161.589C400.391 161.132 398.289 160.298 396.57 159.679C397.011 160.7 397.364 161.74 397.741 162.8C394.882 163.227 392.159 163.465 389.432 164.632C390.846 164.728 392.26 164.863 393.67 165.037C398.898 165.734 401.768 166.994 405.099 172.154C401.134 170.411 397.191 167.803 392.97 169.559C398.756 172.406 407.792 175.867 408.48 185.304L408.252 185.535C407.08 184.04 404.797 181.537 403.504 180.276C404.134 181.762 404.954 183.038 405.571 184.372C406.672 186.749 407.045 190.984 407.08 193.68C407.167 199.967 404.756 207.392 401.019 211.602C398.981 213.897 396.73 215.821 394.766 218.36L394.52 218.683C400.456 216.447 404.341 213.681 409.744 210.034C408.992 212.11 406.934 217.977 406.061 219.668C404.208 223.266 398.184 226.518 395.11 229.062C400.071 226.678 402.047 226.637 407.148 223.184C407.134 224.264 407.128 225.256 407.154 226.335C408.021 226.241 409.15 224.983 409.816 224.225C412.079 221.649 414.272 218.489 415.542 214.961C416.222 213.074 416.673 211.168 417.429 209.291L417.541 209.021C419.471 211.358 419.847 212.408 421 215.421V225.655C420.501 226.631 419.972 228.109 419.464 229.2C417.891 232.551 415.969 235.622 413.751 238.334C406.309 247.372 396.837 252.551 386.998 255.648C379.28 258.349 371.419 257.011 367.524 247.146C366.369 244.224 366.221 242.885 366.324 239.57C366.697 238.773 367.163 238.056 367.612 237.32C380.366 243.723 388.432 238.045 399.286 230.244C397.413 230.912 386.935 233.429 385.389 232.952C387.094 230.31 393.977 227.591 393.999 225.126C392.869 224.952 383.558 228.962 381.447 229.616C378.621 230.522 375.726 231.046 372.811 231.177C375.4 229.573 378.674 228.329 381.396 226.778C384.629 224.935 386.285 223.279 389.021 220.582C379.816 225.17 368.247 228.525 358.365 226.334L362.494 231.703C356.044 229.567 346.999 226.381 342.353 220.074C338.111 214.153 336.306 206.251 332.615 199.891C328.508 192.816 318.636 185.294 319.148 175.029C319.433 169.316 328.553 169.412 331.901 170.498C337.218 172.221 342.694 174.658 347.377 178.466C349.73 180.337 352.424 182.081 351.365 186.161C349.64 188.219 344.809 181.539 343.431 179.883C342.329 181.441 337.989 186.641 336.446 186.426C336.207 184.577 338.573 180.916 339.481 179.456C337.315 180.32 334.974 181.816 332.634 181.44C329.558 180.943 325.145 178.212 323.178 175.232L322.987 174.938L322.741 175.021C322.671 175.308 322.572 175.753 322.63 176.058C324.653 186.602 332.794 193.09 337.873 201.197C339.401 203.634 341.3 209.593 342.698 210.908C343.885 209.512 342.797 208.331 343.244 206.013C343.751 206.33 344.76 208.909 345.278 209.828C348.748 215.986 355.285 219.573 360.991 220.817C357.009 216.204 354.223 210.084 351.217 204.419C350.762 203.563 350.127 201.173 349.813 200.114C350.554 199.982 352.891 199.511 353.398 199.826C355.361 201.047 355.888 206.628 357.439 209.721C360.445 215.714 362.837 218.108 368.119 220.042C363.785 213.419 358.501 205.362 359.011 196.361C359.358 190.239 364.063 179.032 367.718 175.278C373.766 169.065 378.436 168.964 385.458 169.549C376.856 165.009 374.951 169.435 366.415 170.822C365.427 170.984 363.064 171.527 362.287 170.799C364.202 163.232 383.847 161.454 385.153 158.069C384.456 157.509 379.657 158.229 378.584 158.351C376.779 155.489 374.997 153.23 373.046 150.557C371.97 149.081 371.203 147.481 369.999 145.988C368.358 145.98 367.581 148.998 365.766 149.591C364.228 148.976 364.385 144.881 364.985 143.372C365.447 142.204 365.668 141.48 365.907 140.176C364.448 140.69 361.473 142.168 360.243 140.722C359.736 140.125 359.312 139.871 358.62 140.079L358.222 141.066C358.043 141.126 357.854 141.201 357.672 141.18C350.829 140.369 345.418 135.949 340.477 130.803C340.417 133.71 340.067 136.886 340.556 139.764C341.706 146.541 344.764 150.018 349.082 153.681Z" fill="#091B2F"/>
<path d="M0 71.4701C8.19879 68.5245 19.842 65.9377 28.2899 66.4493C45.1657 67.4709 62.1246 76.1204 77.5443 84.2844C90.8235 91.3151 104.28 98.9418 116.401 108.747C119.113 110.942 121.68 113.202 124.115 115.876C119.988 116.614 94.056 121.07 92.668 122.993C88.4305 123.255 70.0015 129.776 66.7337 127.998L66.8166 127.595C68.7836 125.919 74.2829 124.365 76.768 123.625C70.069 120.965 64.8345 119.659 57.9756 115.91C59.5909 114.323 62.3146 112.796 64.2146 111.627C62.5389 109.573 59.0427 106.447 56.9411 104.22C44.5104 91.0448 38.7043 85.2171 22.7551 80.0635C23.4274 80.6304 24.083 81.2279 24.7208 81.8547C31.4793 88.3824 39.3742 98.3521 40.5194 109.509C40.8991 113.208 40.2716 120.292 38.2421 123.162C35.8323 126.571 33.5792 127.583 30.1992 128.02C29.2261 126.65 28.0829 124.236 27.4248 122.577C27.6918 120.862 28.0422 118.955 28.0027 117.175C27.6852 102.848 18.7042 91.4519 10.5115 82.8334C6.86599 78.9984 3.24904 76.0591 0 71.8396V71.4701Z" fill="#091B2F"/>
<path d="M78.2053 93.8838C78.4558 93.9411 78.7065 93.9982 78.957 94.0555C83.1563 98.8345 90.9801 111.573 94.1714 116.367C92.9371 115.414 91.3167 114.584 89.9689 113.835C87.3461 112.426 73.1494 102.415 72.403 100.118C72.1296 99.2767 72.2 98.4685 72.5324 97.6668C73.4892 95.3574 76.3392 94.4199 78.2053 93.8838Z" fill="#F3F9FB"/>
<path d="M69.3415 108.013C71.481 108.061 82.6505 115.555 83.9461 117.179L83.8089 117.474C80.0935 117.293 74.9551 116.162 71.4047 114.817C68.7213 113.8 68.0965 111.011 69.3415 108.013Z" fill="#F3F9FB"/>
<path d="M420.999 203.171C420.663 203.879 420.671 203.903 420.205 204.467L419.758 204.438C417.484 201.649 414.967 185.919 414.218 181.495C413.231 175.485 412.143 169.502 410.956 163.549C410.224 159.927 409.511 155.825 408.264 152.48C406.783 148.5 404.677 146.429 402.388 143.33C402.021 142.833 401.594 142.16 401.636 141.452L401.904 141.289C404.568 142.11 410.671 146.378 411.989 149.505C416.276 159.67 417.728 172.214 419.485 183.432C420.137 187.595 420.253 192.126 420.948 196.328L420.999 196.627V203.171Z" fill="#091B2F"/>
<path d="M323.731 229.73C325.701 231.064 334.408 237.611 335.803 237.202C335.647 235.216 324.835 224.228 325.652 220.134L326.005 219.851C327.714 220.592 332.19 224.541 333.848 225.949C340.001 231.165 345.954 236.758 352.026 242.13C355.416 245.129 359.232 247.943 362.489 251.137C364.476 253.087 365.913 256.155 367.061 258.944C361.698 257.84 355.843 253.988 350.869 250.934C353.358 256.229 357.679 262.847 360.676 268.025C363.466 272.847 367.675 278.098 369.492 283.838C370.104 285.774 369.904 287.872 369.645 289.855C368.143 287.322 364.888 281.705 363.067 279.914C364.433 288.571 366.383 299.624 364.009 308.15C363.702 309.251 363.304 311.04 362.549 311.713C361.772 311.134 360.707 307.608 360.247 306.487C357.633 300.123 354.246 294.566 350.304 289.428C351.667 302.443 346.571 316.711 340.253 326.673C337.283 331.358 333.958 335.592 330.81 340.09C336.498 337.179 339.219 334.522 343.867 329.842C347.241 337.024 352.572 350.097 356.885 356.093C355.247 359.658 353.079 363.056 351.185 366.379C343.777 379.372 335.342 390.26 325.47 400.303C320.182 405.681 317.528 408.555 311.4 412.793C313.771 407.838 317.855 399.812 319.817 394.78C316.896 397.612 314.031 400.509 311.069 403.273C302.545 411.23 293.387 417.742 284.289 424.541C284.629 422.565 284.841 421.286 285.516 419.406C280.971 421.516 276.653 424.486 272.261 426.537C272.194 425.995 271.847 422.764 271.993 422.522C272.684 421.378 271.059 416.816 270.983 417.493C271.696 411.151 271.326 403.604 271.918 397.436L269.369 398.494C269.209 409.465 268.491 417.21 267.839 427.952C266.027 429.272 262.451 430.804 260.316 431.814C261.561 428.166 263.838 413.801 263.33 410.467L263.069 410.077C261.749 411.1 261.748 417.753 259.907 419.159C252.61 424.732 240.447 432.578 232.913 436.704C234.515 433.485 236.301 431.223 237.942 428.206C232.953 431.855 223.292 438.644 219.136 443.289C220.064 441.03 222.105 434.917 222.632 432.515C219.323 435.261 217.502 438.732 215.11 440.76C209.48 435.47 206.432 432.92 199.86 429.289C201.767 432.34 203.32 433.901 205.261 437.435C196.275 433.631 188.162 426.223 179.267 421.596C184.436 428.355 190.01 432.007 194.439 439.949C193.54 439.68 192.655 439.395 191.814 438.908C187.847 436.607 160.737 418.045 159.317 415.263C158.1 412.877 158.163 409.728 157.243 407.149C156.247 406.285 155.57 405.708 154.506 404.97C155.052 412.638 155.965 420.257 157.238 427.786C155.587 427.054 147.783 423.822 147.469 421.811C146.71 416.949 146.483 410.701 146.402 405.685C146.29 398.775 146.162 396.719 140.357 394.939C143.574 399.363 143.776 400.611 143.573 406.616C143.553 407.199 143.361 409.937 142.509 409.466C132.106 403.708 121.572 396.557 111.708 389.383C113.462 392.842 115.233 395.083 117.556 397.897C118.452 398.98 121.022 401.723 121.158 403.162C118.738 402.331 111.989 393.906 109.534 391.782C111.651 395.913 117.388 402.962 118.077 406.074L117.787 406.382C115.896 405.725 110.521 401.587 108.655 400.092C96.2075 390.118 84.3996 378.15 74.8868 363.889C72.9449 360.977 71.6955 358.501 69.9446 355.698C74.0084 347.747 78.624 337.418 82.7926 329.934C86.3197 334.766 93.6206 340.621 98.1741 343.942L97.9911 343.604C96.3979 340.703 93.5949 337.006 91.7729 334.121C84.5843 322.742 81.8732 315.701 79.8411 301.654C78.3916 304.789 74.0345 316.446 72.0371 317.855C68.6622 316.376 67.8806 292.709 68.6557 288.062C68.8083 287.146 69.3832 284.065 68.8658 283.691C65.8787 284.769 62.9182 290.162 60.7578 292.286C61.6092 281.808 66.5078 270.974 72.2244 263.372C75.8179 258.594 80.4076 254.034 83.532 248.655C81.836 250.437 78.1381 252.779 76.0757 254.213C73.153 256.245 71.2076 257.773 68.4561 260.295C68.8371 258.467 70.0186 251.743 70.8617 250.693C75.8622 244.462 82.5348 240.091 88.4051 235.251C93.6741 231.016 99.0494 225.319 104.926 222.697C102.31 228.424 99.0139 232.19 95.0856 236.464C92.9667 238.77 91.3906 240.204 89.5612 242.936C92.7857 241.009 95.8835 238.673 99.0358 236.548C101.38 234.971 103.767 233.606 106.11 232.065L105.905 232.379C103.613 235.864 99.746 239.708 97.0895 242.915C93.5189 247.226 90.3969 251.667 87.3308 256.561C86.5603 257.791 84.6813 260.456 84.7067 261.895L85.0235 262.103C85.9246 261.66 87.8917 258.532 88.8998 257.581C91.0718 255.533 93.7198 253.725 96.2681 252.585L96.0814 252.907C94.3433 255.874 92.1612 258.589 90.3703 261.388C88.8379 263.783 85.1975 270.957 85.0238 273.902L85.2402 274.511C86.3993 274.819 91.7435 269.105 92.9783 268.007C94.3672 266.775 95.4495 266.028 96.9965 265.089L96.9092 265.47C96.0898 268.968 94.6684 272.294 93.7716 275.739C91.989 282.584 91.0468 291.925 92.3854 299.002C94.5679 310.543 102.381 324.679 110.525 330.551C102.429 319.719 93.99 303.716 95.6407 288.182C101.269 313.789 106.469 316.287 121.216 332.753C120.454 329.617 118.524 324.31 118.938 321.36L119.256 320.809C119.482 320.913 129.236 337.482 132.067 339.164C131.841 339.029 141.013 348.536 141.055 348.588C139.676 344.724 138.882 342.115 139.427 337.72C140.689 339.336 142.196 341.609 143.077 343.578C147.075 352.516 153.33 359.01 158.266 366.759C152.806 364.383 149.692 361.891 145.411 356.853C142.608 353.555 141.659 350.817 138.027 349.011C139.413 353.288 142.69 357.895 143.203 359.838L143.005 360.312C139.696 360.187 123.544 342.541 120.216 339.693C121.505 342.182 123.211 345.442 124.895 347.484C127.826 351.036 130.547 353.619 133.343 357.451C123.926 354.636 109.851 342.694 101.967 334.958C98.9711 332.018 96.2021 327.675 93.6387 324.414C100.867 342.463 115.548 352.3 129.52 360.365C138.725 365.607 148.043 370.527 157.465 375.119C163.048 377.783 168.797 380.147 174.388 382.816C182.555 386.713 189.894 392.181 197.923 396.518C197.983 396.542 198.041 396.564 198.1 396.587L198.367 396.989L198.231 397.32C190.776 399.648 181.445 396.52 174.072 394.259C179.873 401 191.285 402.245 198.754 404.331C203.286 405.596 208.985 406.944 213.676 407.397C217.852 407.134 226.773 403.207 231.213 401.489C235.666 399.765 244.063 397.052 247.988 394.76C242.221 395.321 232.682 397.409 227.365 397.166C234.305 393.071 241.213 389.444 247.985 384.648C252.337 381.568 257.666 376.019 261.945 373.445C260.849 377.707 260.168 379.089 257.828 382.452C272.07 375.237 300.096 359.813 310.851 346.708C308.298 347.67 306.55 348.474 304.253 350.182C301.266 352.404 295.265 357.839 292.101 359.042C290.023 360.515 289.095 360.846 286.761 361.596C288.827 358.373 291.391 354.404 293.142 350.958C291.62 350.786 288.852 354.002 287.379 355.111C281.791 359.315 276.277 364.367 269.709 365.596C272.106 361.992 274.614 357.526 276.787 353.654C278.767 350.127 280.006 346.642 282.483 343.439C282.468 348.616 282.405 351.23 280.66 356.044C281.025 355.495 284.494 351.739 285.278 350.811C287.823 347.802 291.053 342.002 293.563 339.663C294.614 338.85 295.73 338.038 296.709 337.103L295.357 341.129C295.041 342.609 294.446 344.603 294.037 346.095C297.38 342.66 301.161 336.47 303.725 332.114C304.75 330.37 306.174 327.754 307.316 326.271L307.569 326.326C308.527 329.643 307.474 333.892 306.797 337.213C313.489 331.474 322.106 319.988 325.871 311.258C331.265 298.749 331.77 287.035 328.534 273.58C327.536 269.423 326.273 265.46 325.31 261.303C328.63 264.771 332.999 274.158 334.682 279.125C335.792 282.399 337.22 287.781 338.202 291.271C339.136 290.49 340.412 289.7 340.682 288.342C341.203 285.717 340.731 282.783 340.327 280.282C338.619 269.732 334.184 261.552 329.772 252.607C329.416 251.883 329.382 251.427 329.557 250.677L329.897 250.588C333.096 251.899 341.163 263.418 342.131 263.148C341.584 256.518 326.574 237.7 322.448 231.431L320.261 228.29C321.613 228.587 322.498 229.022 323.731 229.73Z" fill="#091B2F"/>
<path d="M293.142 350.958L293.491 351.31C292.502 353.82 288.955 358.507 289.114 359.741C290.304 359.962 291.013 358.865 292.102 359.042C290.024 360.515 289.096 360.846 286.762 361.596C288.827 358.373 291.391 354.404 293.142 350.958Z" fill="#091B2F"/>
<path d="M293.559 339.663C294.61 338.849 295.726 338.037 296.705 337.103L295.353 341.129C295.029 340.752 294.801 340.158 294.521 339.676L293.559 339.663Z" fill="#091B2F"/>
<path d="M320.262 228.291C321.614 228.587 322.499 229.022 323.732 229.73L322.802 229.828C322.301 230.65 322.639 230.437 322.449 231.431L320.262 228.291Z" fill="#091B2F"/>
<path d="M336.126 296.941L336.531 297.225C337.9 301.909 336.784 311.707 334.987 316.066C330.242 327.577 320.676 338.913 311.092 343.396L310.59 343.549C310.61 343.227 314.98 336.994 315.581 336.27C318.063 333.282 320.724 330.488 323.133 327.36C324.735 325.277 326.226 323.063 327.596 320.733C331.554 313.982 334.862 305.226 336.126 296.941Z" fill="#F3F9FB"/>
<path d="M231.398 405.851L231.552 405.977C231.287 407.392 219.671 412.961 218.501 414.434C217.795 415.325 218.595 415.794 216.668 417.614C212.603 416.609 201.672 410.817 197.593 408.438C195.954 407.598 195.202 407.181 193.691 406.056C194.932 406.175 197.698 406.985 199.011 407.342C204.031 408.757 209.015 410.354 213.96 412.128C220.823 408.84 224.151 407.444 231.398 405.851Z" fill="#F3F9FB"/>
<path d="M264.083 398.612C264.869 398.499 266.669 398.79 267.534 398.895C261.578 402.488 255.091 403.899 248.575 404.894C247.32 405.129 246.546 405.369 245.283 405.058L245.203 404.751C247.256 402.915 261.172 398.948 264.083 398.612Z" fill="#F3F9FB"/>
<path d="M151.27 382.957C152.34 383.502 155.654 386.135 157.009 387.025C160.063 389.03 164.008 390.928 166.752 393.311C163.12 393.626 156.175 390.529 153.025 388.334C152.234 386.704 151.695 384.785 151.27 382.957Z" fill="#F3F9FB"/>
<path d="M261.141 406.704L261.27 406.678L261.423 406.865C258.942 409.374 242.488 412.054 238.711 412.335C238.466 412.317 238.611 412.357 238.309 412.101C238.356 412.023 238.396 411.939 238.45 411.869C240.106 409.789 257.94 406.837 261.141 406.704Z" fill="#F3F9FB"/>
<path d="M153.531 399.258C158.26 400.323 163.85 402.534 168.499 404.147C170.66 404.899 176.501 406.59 178.314 407.728C173.696 408.129 156.617 403.073 153.531 399.258Z" fill="#F3F9FB"/>
<path d="M155.844 394.164C159.466 394.295 172.627 398.376 175.2 401.132C172.545 401.746 157.268 396.968 155.844 394.164Z" fill="#F3F9FB"/>
<path d="M120.004 360.273C124.465 362.148 133.478 370.8 137.763 373.927C134.078 374.376 121.965 364.097 120.004 360.273Z" fill="#F3F9FB"/>
<path d="M209.21 421.371C210.554 421.204 212.223 421.166 212.179 423.474C210.525 426.511 205.548 424.628 203.148 423.9L198.07 422.016C202.058 422.152 205.228 421.781 209.21 421.371Z" fill="#F3F9FB"/>
<path d="M85.9336 301.98C86.594 302.574 88.2923 307.91 88.8979 309.241C90.2043 312.109 91.7057 314.875 92.9653 317.77C93.1028 318.086 92.9835 318.44 92.9388 318.831C88.945 317.344 86.4002 306.614 85.9336 301.98Z" fill="#F3F9FB"/>
<path d="M348.5 260.801C350.988 261.191 354.916 268.625 354.763 271.633C352.149 270.624 348.597 264.08 348.5 260.801Z" fill="#F3F9FB"/>
<path d="M138.422 378.623C140.948 378.283 146.435 381.473 148.173 383.852C148.674 384.538 148.585 384.741 148.532 385.576C146.866 385.519 142.164 382.001 140.391 381.031C139.511 380.55 138.701 379.844 138.422 378.623Z" fill="#F3F9FB"/>
<path d="M86.0527 284.396L86.2707 284.737C86.4942 287.293 86.1588 295.278 84.3457 296.731C82.5916 292.508 83.6775 287.817 86.0527 284.396Z" fill="#F3F9FB"/>
<path d="M276.861 388.209L277.003 388.43C274.85 392.388 265.425 394.649 261.523 395.596L261.316 395.414C261.571 394.855 261.595 394.844 262.143 394.652C267.174 392.9 271.924 390.293 276.861 388.209Z" fill="#F3F9FB"/>
<path d="M300.088 364.675L300.056 364.87C298.519 367.335 286.264 375.022 283.384 376.12L283.352 375.8C283.876 374.714 297.882 366.223 300.088 364.675Z" fill="#F3F9FB"/>
<path d="M165.945 382.214C168.438 382.618 175.548 384.797 176.496 388.107C173.615 388.091 168.319 384.314 165.945 382.214Z" fill="#F3F9FB"/>
<path d="M270.63 384.861C271.455 384.634 271.811 384.735 272.668 384.823C271.394 386.408 265.825 388.676 263.892 389.513C262.826 390.018 261.854 390.259 260.75 390.568C263.768 388.13 267.044 385.514 270.63 384.861Z" fill="#F3F9FB"/>
<path d="M127.285 373.107C127.83 373.244 130.4 374.947 130.942 375.388C132.49 376.652 134.564 377.55 135.082 379.816C133.136 380.043 128.438 375.175 127.285 373.107Z" fill="#F3F9FB"/>
<path d="M79.3656 271.122L79.7465 271.409C80.0106 273.637 78.7507 277.069 77.7695 278.923C75.8535 277.739 78.4553 272.428 79.3656 271.122Z" fill="#F3F9FB"/>
<path d="M73.2416 271.955L73.4613 272.256C73.4455 274.351 72.9077 278.622 71.3988 279.716C69.9801 277.417 72.0065 273.831 73.2416 271.955Z" fill="#F3F9FB"/>
<path d="M347.789 269.554C349.371 270.071 350.252 272.854 350.263 274.752C348.045 275.032 347.865 271.563 347.789 269.554Z" fill="#F3F9FB"/>
<path d="M212.282 243.702C229.749 242.494 250.622 250.136 264.286 263.964C266.372 266.074 268.436 269.511 270.137 272.153C271.919 265.093 272.634 263.315 271.595 256.058C273.317 252.559 278.395 250.953 280.482 254.187C284.566 260.518 286.079 269.828 286.096 277.832C286.121 288.319 282.833 297.037 276.903 304.311C270.348 312.541 264.3 315.655 255.177 315.507C255.854 316.701 257.044 318.492 257.548 319.709C259.537 324.507 261.755 332.47 262.891 337.717C264.188 343.702 266.668 354.691 263.967 360.14C262.213 363.678 260.215 365.196 257.331 366.786C245.131 373.508 232.652 365.578 219.94 365.808C213.911 365.918 209.018 367.781 203.278 369.798C202.12 370.219 200.958 370.622 199.792 371.009C193.566 373.029 189.319 373.66 182.992 373.05C171.233 371.918 159.653 364.294 156.707 348.909C156.525 347.96 156.505 347.609 156.921 346.813C157.828 346.749 161.165 350.685 162.081 351.667C159.354 337.297 160.305 330.437 163.229 316.477C165.01 316.27 173.536 315.652 174.575 315.011C173.569 313.759 158.202 313.87 151.608 305.249C140.914 291.271 136.196 275.594 146.636 258.688C149.439 254.148 153.882 253.599 157.082 257.716C155.445 262.496 156.451 267.523 158.377 271.915C159.943 269.734 161.713 267.225 163.493 265.3C173.818 254.132 188.058 247.294 201.446 244.702C204.614 244.09 209.046 243.914 212.282 243.702Z" fill="#091B2F"/>
<path d="M213.277 308.352C219.348 307.327 233.641 309.549 238.368 314.592C244.104 320.712 250.592 336.098 251.543 345.835C251.764 348.089 251.799 351.319 250.501 353.095C244.253 361.656 233.626 357.538 225.479 357.295C220.991 357.162 217.282 356.825 212.938 357.236C207.254 357.763 202.169 358.619 196.502 359.791C192.412 360.819 182.369 361.215 179.067 357.427C171.724 349.004 176.92 329.334 182.539 321.419C185.283 317.555 188.15 315.607 191.655 314.052C198.794 310.886 205.81 309.139 213.277 308.352Z" fill="#F3F9FB"/>
<path d="M228.458 338.096C232.121 337.73 236.265 338.623 239.684 340.669C245.361 344.067 245.466 352.256 238.467 352.932C233.608 353.403 228.355 352.376 223.363 352.118C214.379 351.651 206.098 352.878 197.297 354.901C193.68 355.64 187.938 357.039 185.079 353.106C183.01 350.26 185.333 346.194 187.303 344.328C193.926 338.069 202.742 337.421 210.482 340.383C212.5 341.155 214.516 342.365 216.562 342.888C217.057 343.015 217.097 342.863 217.404 342.508C217.437 341.665 217.411 341.559 217.629 340.739C219.63 338.685 225.746 338.347 228.458 338.096Z" fill="#091B2F"/>
<path d="M194.354 262.802C194.694 262.755 195.035 262.717 195.376 262.689C205.245 261.811 202.448 272.844 200.057 280.042C196.444 290.928 192.317 301.759 181.733 301.515C170.536 299.249 172.372 285.854 177.127 276.727C180.677 269.912 187.891 264.118 194.354 262.802Z" fill="#F3F9FB"/>
<path d="M229.485 262.312C245.953 262.483 264.62 298.132 247.159 298.742C244.45 298.027 241.249 296.466 238.571 295.282C238.261 296.223 238.175 296.788 237.412 297.094C237.014 296.984 236.729 296.829 236.408 296.516C232.822 293.01 224.52 273.416 224.019 267.795C223.903 266.507 223.969 265.531 224.651 264.511C225.836 262.733 227.774 262.527 229.485 262.312Z" fill="#F3F9FB"/>
<path d="M197.896 367.321L198.198 367.253L198.289 367.456C197.23 368.288 195.289 368.783 194.05 369.199C188.909 370.927 182.698 371.722 177.554 369.646C177.006 369.441 176.835 369.37 176.32 369.069C176.79 368.834 181.196 369.684 182.537 369.589C187.677 369.224 192.798 368.151 197.896 367.321Z" fill="#F3F9FB"/>
<path d="M77.8482 141.741C78.2486 141.634 78.4914 141.59 78.8695 141.828C84.1902 145.252 85.0925 152.195 83.9852 158.834C82.5344 167.531 75.0273 172.029 68.7148 174.162C73.2821 170.018 78.1755 167.618 79.9936 159.459C80.8244 155.732 80.6443 151.126 79.1108 147.721C75.2313 150.742 69.1952 154.069 64.6661 155.101C62.711 155.547 60.0079 155.528 57.9506 155.745C58.1018 156.397 58.7064 157.365 59.0438 157.97C54.9593 155.843 53.0321 154.921 48.7265 153.686C53.788 156.644 54.7527 157.783 53.7473 164.734C52.759 163.448 50.8067 160.501 49.494 160.419L49.6499 161.191C48.8669 164.998 41.236 173.24 38.6437 176.304C37.6271 176.534 36.3693 176.725 35.4541 177.249C35.6434 178.082 54.2639 178.312 54.9585 183.718C53.1808 184.799 43.5034 181.958 40.6814 181.522C42.1967 182.376 43.2458 182.925 44.6279 184.062C42.5155 185.025 40.4272 186.052 38.3102 187.005C43.4095 187.771 46.439 188.01 51.1896 190.918C56.9536 194.448 62.5151 199.742 64.7746 207.591C66.4741 213.495 64.7555 223.713 62.6132 229.152C66.4142 225.571 68.5192 221.436 70.6751 216.12C71.152 214.943 72.4028 211.162 72.9959 210.491C74.9842 213.092 70.1451 227.449 68.2983 230.093C67.2591 231.581 66.1199 233.694 65.2392 235.387C70.5725 234.148 79.8843 227.15 83.3888 221.812C85.3863 218.728 86.9505 215.066 89.031 212.074C92.8877 206.525 97.7893 202.174 101.092 195.991C103.069 192.29 104.002 189.115 104.036 184.658C97.1628 192.064 90.2429 194.264 81.5703 191.469C82.5386 192.599 86.5225 196.863 86.3914 198.237C84.7697 198.557 79.2908 193.911 77.8026 192.733C75.456 195.859 74.539 197.828 73.1181 201.696C71.5066 199.305 71.3564 198.797 70.5419 195.863C76.1276 187.941 85.2607 181.811 93.6588 180.814C105.281 179.437 113.431 184.025 103.897 198.706C100.641 203.718 96.3299 208.771 93.2461 213.91C90.2111 218.969 88.9134 224.94 85.2041 229.834C83.7162 231.792 81.9749 233.417 80.0545 234.643C76.8892 236.695 67.3217 240.421 63.3536 241.266C62.8757 241.368 62.6574 240.962 62.4081 240.584C62.2469 239.483 62.7033 238.235 62.9987 237.11L63.8894 233.595C62.2586 234.482 56.7457 238.584 55.4984 238.376C48.8833 237.271 42.0298 234.306 35.6448 231.817C40.6832 238.841 50.0256 241.434 57.2638 241.571C58.1497 241.588 58.9778 241.542 59.5983 242.385C59.5848 242.826 59.5619 243.14 59.3705 243.531C59.1084 244.065 58.7232 244.355 58.2504 244.522C55.643 245.442 36.271 238.917 32.9031 237.419C30.6264 236.406 28.5875 234.998 26.4514 233.607C29.6105 238.588 33.5779 243.153 37.9998 246.281C30.9774 245.565 27.206 243.671 21.2391 239.505C32.8607 254.824 44.4186 253.23 58.8297 245.297C58.0232 246.616 57.2992 247.668 56.3927 248.885C55.3945 250.225 53.8852 251.444 54.361 253.411C54.8943 254.117 55.6493 254.259 56.4139 254.529C52.453 262.89 53.0131 262.598 45.5489 261.574C47.3833 262.464 54.6533 265.241 56.3578 263.792C58.0393 261.817 59.6016 257.496 60.5416 254.937C63.1946 247.715 65.0454 244.556 70.206 240.163C68.9047 243.909 67.3194 247.853 65.9213 251.67C64.3772 255.888 62.5529 262.965 60.41 266.483C59.0124 268.777 52.637 269.463 50.3334 269.393C34.8682 268.925 18.7108 263.99 7.63666 249.488C3.94524 244.654 0.150798 237.804 0.247919 230.805C0.314222 226.027 2.3242 222.898 4.84398 219.784C5.68628 223.1 6.56173 226.595 8.40955 229.269C9.63708 231.046 12.4146 235.431 14.4914 234.978C15.4448 232.021 10.2103 228.197 15.5396 219.063C16.5453 219.85 19.1174 221.943 20.2298 221.749C20.1748 221.01 19.4465 219.377 19.1416 218.666C17.0058 213.688 15.9364 210.01 16.5365 204.326C17.4707 195.473 22.6445 190.535 27.8516 185.42C26.1574 186.3 24.2496 187.273 22.6359 188.33C20.7385 189.576 19.2216 190.87 17.2 191.842C20.6636 184.374 25.2918 182.28 31.3035 179.57C29.064 178.921 27.4298 178.56 25.1585 179.144C24.4176 179.335 22.9944 179.805 22.3698 179.447C21.798 177.527 24.2992 174.487 24.6174 172.255C25.1785 169.133 27.9782 166.059 29.5704 163.897C37.4816 153.151 43.6879 150.582 54.7088 147.765C62.2045 145.849 70.1868 143.728 77.8482 141.741Z" fill="#091B2F"/>
<path d="M44.0703 264.12C46.382 264.487 50.3209 264.99 52.3884 266.038C50.6293 266.179 45.2246 265.905 44.0703 264.12Z" fill="#F3F9FB"/>
<path d="M171.383 180.873C171.677 180.855 171.97 180.842 172.265 180.833C192.106 180.262 206.571 206.925 194.141 228.473C187.976 239.16 175.653 245.712 165.224 245.715C152.909 245.641 139.44 238.722 138.158 221.188C136.484 198.292 154.74 182.261 171.383 180.873Z" fill="#091B2F"/>
<path d="M154.424 240.875C153.898 240.416 151.61 239.194 150.897 238.757C141.912 233.257 138.361 220.141 142.497 208.73C146.095 198.804 153.376 191.765 161.318 187.829C169.872 183.589 176.776 183.422 185.189 188.089C187.607 188.036 189.436 191.804 191.084 192.957C193.747 194.819 198.557 206.635 196.843 209.471C197.423 221.737 191.771 231.116 183.609 236.916C182.788 237.498 181.629 238.201 180.874 238.824L180.895 239.251C174.355 243.426 163.65 245.473 156.681 242.204C155.871 241.825 154.926 241.829 154.501 241.274L154.424 240.875Z" fill="#F3F9FB"/>
<path d="M180.876 238.824L180.897 239.25C174.357 243.426 163.652 245.473 156.683 242.204C155.873 241.825 154.928 241.829 154.503 241.274L154.426 240.875C165.019 244.559 170.731 243.788 180.876 238.824Z" fill="#091B2F"/>
<path d="M185.191 188.089C187.61 188.036 189.438 191.804 191.086 192.957C193.75 194.819 198.56 206.636 196.846 209.471C196.742 208.454 196.6 207.444 196.425 206.442C194.951 197.775 190.857 192.7 185.191 188.089Z" fill="#091B2F"/>
<path d="M179.331 199.716C190.114 197.302 196.644 212.32 190.297 222.954C187.507 227.627 183.826 229.952 179.303 230.849C176.123 231.178 172.68 230.697 170.037 228.263C167.644 226.024 166.099 222.635 165.768 218.908C165.39 214.681 166.351 210.438 168.44 207.094C171.208 202.637 174.945 200.409 179.331 199.716Z" fill="#091B2F"/>
<path d="M187.836 215.585L188.098 216.052C188.302 222.38 183.322 227.987 178.54 228.574C175.551 228.941 170.792 228.004 170.571 223.336C170.563 221.69 170.779 219.878 170.936 218.223C175.607 229.264 184.634 225.024 187.836 215.585Z" fill="#091B2F"/>
<path d="M177.058 204.341C181.923 203.983 182.355 210.768 176.6 211.716C175.917 211.714 175.056 211.658 174.408 211.364C172.793 210.633 172.313 208.665 173.274 206.862C174.266 204.994 175.429 204.736 177.058 204.341Z" fill="#F3F9FB"/>
<path d="M254.358 179.826C264.022 179.853 273.356 184.255 280.652 192.228C285.941 197.972 290.159 206.432 290.452 215.353C291.069 234.144 279.032 241.786 266.055 242.923C250.64 244.502 231.544 234.394 230.359 212.52C229.876 204.389 232.062 196.365 236.408 190.316C241.399 183.242 246.944 180.381 254.358 179.826Z" fill="#091B2F"/>
<path d="M263.779 240.515C250.887 240.674 235.296 233.861 232.439 216.01C231.26 208.875 232.416 201.442 235.646 195.391C243.785 180.367 259.811 181.353 271.149 189.512C273.118 190.928 274.804 192.52 276.654 194.136L277 193.904C280.806 196.717 284.741 205.426 286.625 210.76C287.249 212.529 286.254 215.468 287.138 217.201C287.638 220.1 285.584 226.668 284.348 229.073C280.414 236.738 270.955 241.181 263.864 240.942L263.779 240.515Z" fill="#F3F9FB"/>
<path d="M276.656 194.137L277.002 193.904C280.808 196.718 284.743 205.426 286.627 210.76C287.251 212.529 286.256 215.468 287.141 217.201C287.64 220.1 285.587 226.668 284.35 229.073C280.416 236.738 270.957 241.181 263.866 240.942L263.781 240.515C265.334 240.224 267.093 240.041 268.653 239.737C281.532 237.239 289.932 225.082 285.158 208.592C283.259 202.028 280.529 198.992 276.656 194.137Z" fill="#091B2F"/>
<path d="M247.349 198.665C263.426 195.642 272.599 225.937 254.955 229.887C251.247 229.965 249.565 229.815 246.131 227.988C234.894 222.013 232.644 201.416 247.349 198.665Z" fill="#091B2F"/>
<path d="M259.543 215.543C260.107 216.209 261.024 219.112 261.018 220.162C260.978 225.918 255.809 228.525 251.872 227.59C248.539 226.798 246.848 224.314 245.057 221.009C244.363 219.257 243.561 217.559 242.781 215.864C245.806 219.87 252.715 226.431 257.065 221.735C258.206 220.502 259.321 217.421 259.543 215.543Z" fill="#091B2F"/>
<path d="M243.767 203.056C248.9 202.536 250.892 207.551 245.871 210.195C240.418 211.003 238.508 206.277 243.767 203.056Z" fill="#F3F9FB"/>
<path d="M389.782 66.5488C390.958 66.2666 397.568 66.2907 398.876 66.4617C402.273 66.9068 417.732 68.36 419.599 70.9513C420.527 74.7685 413.499 79.7059 411.362 81.7566C404.65 88.147 398.441 94.8347 394.44 104.366C390.528 113.685 392.805 117.898 395.111 126.834C394.866 127.059 394.773 127.264 394.447 127.16C374.636 120.884 375.734 106.026 388.738 89.728C391.28 86.544 394.847 83.0328 397.716 79.9316C388.394 81.9207 383.714 83.8661 375.428 89.3599C374.622 89.8917 373.406 90.5226 372.991 91.4997L373.168 91.8676C374.416 92.3026 375.986 92.0628 377.345 92.0123C373.377 97.4932 363.586 106.184 358.602 111.127C361.841 112.146 365.188 112.874 368.39 114.085C370.161 114.754 370.668 115.375 371.767 117.161C370.862 117.192 369.959 117.185 369.062 117.021C366.928 116.633 347.945 110.974 347.085 109.877C345.454 107.796 346.848 103.32 345.234 100.827C342.595 96.7471 332.73 96.7587 328.597 96.2441C327.773 96.1407 326.723 96.1213 326.16 95.2575C326.579 94.5618 343.295 86.9809 345.149 86.177C359.091 80.133 374.977 68.0866 389.782 66.5488Z" fill="#091B2F"/>
<path d="M12.6908 128.422C17.6641 129.693 32.1153 139.028 35.302 143.92C33.9431 147.628 31.3436 149.209 28.8553 151.799C17.9667 163.129 11.5086 177.735 10.3788 195.536C10.0342 200.966 10.4272 206.024 9.94171 211.461C9.82612 214.254 9.74067 214.637 8.78108 217.023C-0.205513 202.809 8.63658 162.591 21.4529 154.725C22.8406 153.873 24.9791 151.43 26.1971 150.101C22.89 144.865 12.5305 135.568 12.6908 128.422Z" fill="#091B2F"/>
<path d="M230.799 376.371C231.61 375.795 232.475 375.003 233.354 375.003L233.54 375.373C233.244 376.879 231.34 379.613 230.437 380.46C230.03 381.287 229.387 382.301 228.912 383.103C233.748 381.189 235.957 379.715 240.457 376.861C242.043 375.748 242.916 375.364 244.642 374.608C243.64 376.103 241.569 379.364 240.405 380.377C239.23 382.115 232.111 388.883 230.542 388.773C230.324 388.227 230.264 388.103 229.981 387.608C229.68 387.631 223.779 392.246 222.683 392.921C221.908 391.138 221.699 390.618 220.64 389.102C218.72 390.685 216.893 393.542 214.792 394.603C212.527 395.746 200.061 390.428 197.307 389.039C193.813 387.277 189.479 383.986 187.239 380.097C186.706 379.169 186.359 378.005 186 376.957C188.163 377.974 189.618 379.319 191.607 380.629C195.535 383.216 199.399 386.118 203.483 388.279C202.049 385.188 201.265 383.604 201.063 379.98C210.594 384.296 213.454 382.221 222.049 376.445C221.632 378.092 221.254 379.755 220.916 381.431C225.536 379.607 226.984 378.177 230.799 376.371Z" fill="#091B2F"/>
<path d="M230.8 376.371C231.611 375.796 232.475 375.003 233.354 375.003L233.541 375.373C233.245 376.879 231.341 379.613 230.438 380.46C229.805 379.289 232.018 378.342 232.149 376.878C231.662 376.247 231.729 376.456 230.8 376.371Z" fill="#091B2F"/>
<path d="M240.459 376.861C242.045 375.748 242.917 375.364 244.644 374.608C243.642 376.103 241.57 379.364 240.406 380.377C240.415 378.996 241.823 378.523 242.017 377.152C241.308 376.654 241.408 376.831 240.459 376.861Z" fill="#091B2F"/>
<path d="M253.241 161.975C263.131 160.957 275.299 165.448 282.933 173.663C285.845 176.797 289.925 183.545 290.463 188.623C290.563 189.576 290.147 189.958 289.703 190.533C289.241 190.558 289.156 190.429 288.852 189.89C286.15 185.087 283.619 179.403 279.467 176.293V176.69C280.045 178.114 281.087 180.169 281.329 181.591L281.097 181.912C278.484 180.242 275.905 177.24 273.39 175.31C265.561 169.303 255.718 165.962 246.575 168.055C244.128 168.615 241.17 170.214 238.859 171.404C241.637 164.274 247.489 162.841 253.241 161.975Z" fill="#091B2F"/>
<path d="M69.7715 133.204C73.1344 132.792 75.6279 137.635 72.8305 138.76C65.9869 141.515 58.6055 143.351 51.5864 145.464C49.2444 146.17 46.8248 146.63 44.5484 147.583C36.1544 151.094 28.9486 159.918 22.8372 167.428C21.8985 168.572 20.9203 170.031 20.043 171.28C22.4224 162.209 27.0188 156.941 32.8617 151.152C39.3821 144.692 46.9256 142.128 54.6172 138.779C59.7338 136.549 64.4767 134.632 69.7715 133.204Z" fill="#091B2F"/>
<path d="M330.953 152.012L331.151 152.188C331.561 154.544 327.341 159.305 325.958 160.663C323.058 163.513 319.645 164.797 316.328 166.658L318.842 167.506C315.414 172.838 316.095 177.056 314.039 181.909C311.791 179.724 311.367 179.264 310.223 176.065C309.69 174.667 309.653 172.339 309.2 170.609C308.518 168.011 303.87 162.381 304.342 160.025C304.859 159.856 308.978 160.872 309.98 161.025C318.575 162.335 323.869 156.914 330.953 152.012Z" fill="#091B2F"/>
<path d="M172.37 168.181C174.656 168.053 179.933 168.641 180.901 171.659C180.48 172.225 178.931 172.009 178.269 171.943C166.328 170.749 153.436 178.733 143.932 187.259C142.726 188.329 139.608 191.413 138.262 190.795C138.41 189.783 139.692 187.817 140.265 187.008C147.399 176.932 161.859 169.118 172.37 168.181Z" fill="#091B2F"/>
<path d="M210.178 236.979C218.46 236.013 229.036 237.749 236.554 242.176C237.362 242.653 239.121 243.597 239.725 244.252L239.607 244.546C238.642 244.694 231.16 242.084 229.193 241.648C224.815 240.648 220.356 240.328 215.916 240.692C210.251 240.786 204.604 241.492 199.036 242.801C194.729 243.849 190.477 245.297 186.148 246.216C191.73 240.123 202.97 237.594 210.178 236.979Z" fill="#091B2F"/>
<path d="M89.7371 160.489C90.6779 161.587 91.0319 166.11 93.0257 168.125C99.6987 174.866 108.135 177.877 116.509 177.666C112.954 180.414 110.345 180.787 106.329 179.874C100.16 178.114 95.8554 174.978 90.6599 170.756C86.8125 172.732 85.1684 172.962 81.0586 173.633C85.3498 170.116 87.418 165.909 89.7371 160.489Z" fill="#091B2F"/>
<path d="M341.904 57.5229C344.452 58.325 346.535 59.0274 348.966 60.264C345.233 66.4484 341.529 70.5389 336.906 75.5683L334.251 78.2652C333.237 77.5218 332.62 77.2493 332.223 75.9247C332.536 72.6171 339.861 60.9049 341.904 57.5229Z" fill="#091B2F"/>
<path d="M132.765 217.588C133.403 217.936 133.391 220.396 133.445 221.298C134.017 230.736 138.267 238.651 144.881 243.064C146.311 244.016 147.79 244.848 149.307 245.556C150.334 246.024 155.854 248.076 156.175 248.882L155.666 249.065C144.986 250.242 129.876 238.149 131.513 223.094C131.766 220.774 131.447 219.631 132.765 217.588Z" fill="#091B2F"/>
<path d="M297.306 218.839C298.567 219.553 298.545 221.932 298.558 223.453C298.686 238.578 284.472 246.251 274.378 246.459C273.777 246.494 273.668 246.457 273.066 246.338C273.418 245.894 276.871 244.573 277.574 244.296C288.428 240.043 295.074 233.327 297.306 218.839Z" fill="#091B2F"/>
<path d="M406.497 127.154C406.934 127.274 406.726 127.153 407.057 127.709C407.487 131.293 405.511 136.786 404.282 139.95C403.055 139.128 401.836 138.29 400.623 137.439C399.577 136.531 398.344 135.219 397.336 134.198C399.36 131.643 403.849 128.793 406.497 127.154Z" fill="#091B2F"/>
<path d="M354.714 69.2764C355.428 69.6093 356.216 71.3686 356.677 72.2327C353.985 75.2359 345.453 80.2035 342.006 81.4968C341.298 81.4505 340.911 81.4984 340.242 81.24C340.843 78.6504 352.279 70.9416 354.714 69.2764Z" fill="#091B2F"/>
<path d="M309.147 188.119C312.227 188.261 322.257 197.025 321.998 201.392C317.168 199.699 311.751 195.748 308.936 190.409C308.603 189.778 308.947 188.746 309.147 188.119Z" fill="#091B2F"/>
<path d="M213.324 231.296C218.44 231.161 225.627 232.733 230.154 235.71C226.365 235.51 221.659 234.452 217.648 233.986C213.553 233.103 205.34 234.417 201.014 234.919L200.848 234.541C202.07 232.068 210.933 231.471 213.324 231.296Z" fill="#091B2F"/>
<path d="M305.488 196.394C308.725 196.9 313.966 199.49 315.514 203.467C315.882 204.412 315.545 205.293 315.241 206.196C311.136 206.153 307.353 202.553 305.155 198.155C304.868 197.58 305.267 196.897 305.488 196.394Z" fill="#091B2F"/>
<path d="M128.524 234.898C128.388 234.805 132.504 241.494 133.34 242.651C135.722 245.947 141.753 248.284 143.524 250.508C137.769 250.773 126.144 243.483 128.524 234.898Z" fill="#091B2F"/>
<path d="M119.535 193.719C119.708 193.702 119.925 193.786 120.111 193.837L120.101 194.195C117.177 198.533 111.961 201.991 107.797 204.007C107.296 204.039 107.502 204.14 107.16 203.78C108.644 197.971 115.18 194.975 119.535 193.719Z" fill="#091B2F"/>
<path d="M121.383 199.891C121.569 199.865 121.983 199.928 122.189 199.949C122.238 202.596 114.312 209.188 111.746 209.295C110.889 208.853 111.047 209.104 110.531 208.292C110.669 205.058 119.097 200.703 121.383 199.891Z" fill="#091B2F"/>
<path d="M294.539 162.486C296.822 163.019 298.283 164.581 299.766 166.81C301.105 168.822 303.594 174.858 303.364 177.374L302.985 177.334C302.424 176.854 299.924 172.523 299.356 171.531C298.004 169.17 294.941 165.09 294.539 162.486Z" fill="#091B2F"/>
<path d="M234.207 234.022C236.284 234.619 247.326 241.844 248.581 243.657C246.348 244.816 237.807 239.065 235.884 237.028C234.893 235.975 234.497 235.569 234.207 234.022Z" fill="#091B2F"/>
<path d="M299.13 238.39L299.398 238.807C299.412 243.674 290.137 247.212 286.89 247.596C286.779 247.614 286.673 247.53 286.566 247.486C287.189 246.188 291.546 243.824 292.805 243.012C294.969 241.594 297.08 240.051 299.13 238.39Z" fill="#091B2F"/>
<path d="M129.832 176.87L130.314 176.98L130.427 177.444C129.758 179.485 123.919 185.809 122.258 187.102C119.122 183.876 128.154 177.859 129.832 176.87Z" fill="#091B2F"/>
<path d="M349.67 160.921C350.239 161.014 351.57 161.496 351.493 162.455C351.31 164.794 351.244 167.128 351.133 169.462C351.057 171.05 351.521 173.349 351.311 174.662C349.121 172.71 348.265 163.901 349.67 160.921Z" fill="#091B2F"/>
<path d="M194.856 235.32L195.378 235.36L195.412 235.723C194.409 237.394 184.538 243.769 182.419 245.079L182.027 245.063L181.945 244.811C185.22 240.765 190.543 237.214 194.856 235.32Z" fill="#091B2F"/>
<path d="M69.6811 178.292C72.3187 180.347 71.4213 188.169 70.5837 191.358C70.305 191.472 70.4792 191.431 70.0523 191.367C69.2399 189.419 68.7163 180.232 69.6811 178.292Z" fill="#091B2F"/>
<path d="M330.797 142.858C331.795 144.092 337.275 151.649 336.843 152.841C333.641 150.36 328.573 148.433 330.797 142.858Z" fill="#091B2F"/>
</g>
<defs>
<clipPath id="clip0_1_3197">
<rect width="421" height="443" fill="white"/>
</clipPath>
</defs>
</svg>
