<svg width="42" height="42" viewBox="0 0 42 42" fill="none" xmlns="http://www.w3.org/2000/svg">
<g clip-path="url(#clip0_1_5737)">
<path d="M9.59544 7.74959C9.93521 7.74959 10.2107 7.47413 10.2107 7.13435C10.2107 6.79458 9.93521 6.51912 9.59544 6.51912C9.25567 6.51912 8.98021 6.79458 8.98021 7.13435C8.98021 7.47413 9.25559 7.74959 9.59544 7.74959ZM4.67357 7.74959C5.01334 7.74959 5.2888 7.47413 5.2888 7.13435C5.2888 6.79458 5.01334 6.51912 4.67357 6.51912C4.33379 6.51912 4.05833 6.79458 4.05833 7.13435C4.05833 7.47413 4.33371 7.74959 4.67357 7.74959ZM7.1345 7.74959C7.47428 7.74959 7.74974 7.47413 7.74974 7.13435C7.74974 6.79458 7.47428 6.51912 7.1345 6.51912C6.79473 6.51912 6.51927 6.79458 6.51927 7.13435C6.51927 7.47413 6.79465 7.74959 7.1345 7.74959ZM6.99956 14.2672C7.00334 14.2673 7.00711 14.2673 7.01088 14.2673L12.5733 14.2687H12.5737C12.958 14.2687 13.2842 14.0197 13.3857 13.6491C13.4872 13.2783 13.3331 12.8978 13.0024 12.7021L12.1564 12.2016C13.5161 10.8539 14.2809 9.01508 14.2688 7.0885C14.2444 3.23565 11.091 0.0562053 7.23926 0.000752163C3.24803 -0.0565877 0 3.17192 0 7.13452C0 10.9345 3.13097 14.1849 6.99956 14.2672ZM2.99004 2.9296C4.12453 1.81135 5.62406 1.20883 7.22162 1.23106C10.4088 1.27691 13.0181 3.90798 13.0383 7.09621C13.0492 8.81632 12.3116 10.4521 11.0145 11.584C10.7976 11.7731 10.684 12.057 10.7102 12.3434C10.7365 12.6296 10.9 12.8879 11.1473 13.0341L11.1535 13.0377L7.01695 13.0367C3.81921 12.9754 1.23047 10.341 1.23047 7.13452C1.23047 5.54139 1.85538 4.04809 2.99004 2.9296ZM41.3848 40.7695H40.7695V31.6075C40.7695 29.2071 39.3511 27.0273 37.1491 26.0513L33.9067 24.6616C34.6957 24.4126 35.4085 23.9686 35.9884 23.3528C36.8634 22.4238 37.3652 21.1633 37.3652 19.8943C37.3652 18.7283 36.9579 17.6278 36.187 16.7114C35.2228 15.5665 34.6918 14.1114 34.6918 12.614V9.66584C34.6918 7.08366 33.6862 4.65652 31.8604 2.83157C30.0345 1.00555 27.6071 1.38822e-05 25.0253 1.38822e-05C19.6955 1.38822e-05 15.3595 4.33602 15.3595 9.66576V12.518C15.3599 14.0674 14.7509 15.5463 13.7615 16.7385C12.5162 18.2388 12.2574 20.2674 13.0864 22.0325C13.7016 23.3427 14.8113 24.284 16.1398 24.6824L12.9201 26.0825C10.6612 27.0331 9.20153 29.2308 9.20153 31.6814V38.9239C9.20153 39.2637 9.47691 39.5392 9.81676 39.5392C10.1566 39.5392 10.432 39.2637 10.432 38.9239V31.6814C10.432 29.7272 11.5959 27.9746 13.4041 27.2138L17.4398 25.4588V29.1621H15.5857C15.0632 29.1621 14.563 29.3849 14.2135 29.7734C13.864 30.1619 13.6952 30.6827 13.7503 31.2023L14.7645 40.7695H0.615234C0.275379 40.7695 0 41.045 0 41.3848C0 41.7246 0.275379 42 0.615234 42H41.3848C41.7246 42 42 41.7246 42 41.3848C42 41.045 41.7246 40.7695 41.3848 40.7695ZM35.2456 17.5037C35.8273 18.1952 36.1348 19.0218 36.1348 19.8942C36.1348 20.8529 35.755 21.806 35.0927 22.5091C34.3915 23.2536 33.4282 23.6636 32.3803 23.6636H31.5785L30.5253 23.2122C29.6053 22.8176 28.976 21.9718 28.8474 20.9981C30.7456 19.976 32.039 17.97 32.039 15.6672V11.042C32.2191 11.0542 32.399 11.0609 32.5784 11.0609C32.8743 11.0609 33.169 11.044 33.4614 11.0109V12.614C33.4614 14.4009 34.0951 16.1375 35.2456 17.5037ZM25.1748 27.2163C22.9738 27.2552 20.7894 26.9763 18.6703 26.3886V24.9237L18.8482 24.8464C18.8496 24.8458 18.851 24.8451 18.8525 24.8446L19.9501 24.3673C21.1719 23.8362 22.0352 22.7483 22.297 21.4769C22.8327 21.6327 23.3982 21.7179 23.9836 21.7179H25.9883C26.5759 21.7179 27.1435 21.6321 27.681 21.4751C27.9514 22.7406 28.8181 23.8188 30.0404 24.3431L31.2118 24.8451C31.2126 24.8455 31.2133 24.8458 31.214 24.8461L31.3008 24.8832V26.2677C29.3097 26.8609 27.2512 27.18 25.1748 27.2163ZM31.3007 27.5487V29.1622H18.6703V27.6627C20.6648 28.1856 22.7126 28.4503 24.7743 28.4503C24.9149 28.4503 25.0556 28.449 25.1963 28.4466C27.2627 28.4105 29.3121 28.1085 31.3007 27.5487ZM33.4614 9.77026C31.7667 9.99921 29.8564 9.54525 28.5403 8.52552C28.2718 8.31749 27.8854 8.36638 27.6772 8.63503C27.4691 8.9036 27.5181 9.29005 27.7867 9.49817C28.6471 10.1648 29.6849 10.6343 30.8086 10.871V14.2205C30.5129 14.8943 30.1838 15.4546 29.4418 16.0667C29.1295 16.3245 28.7876 16.5385 28.4214 16.7083C28.1224 16.1248 27.5151 15.7243 26.8157 15.7243H25.3739C24.3794 15.7243 23.5704 16.5334 23.5704 17.5278C23.5704 18.5222 24.3794 19.3313 25.3739 19.3313H26.8157C27.6526 19.3313 28.358 18.7582 28.5606 17.984C29.3836 17.6704 30.7255 16.5516 30.7259 16.5512C30.3092 18.788 28.3441 20.4871 25.9884 20.4871H23.9835C21.3257 20.4871 19.1633 18.3248 19.1633 15.6669V10.9112C21.2529 10.5837 23.227 9.87658 25.0374 8.80574C27.794 7.17521 29.5622 5.04453 30.6292 3.36116C32.455 4.98727 33.4936 7.31851 33.4614 9.77026ZM27.3885 17.5295C27.3876 17.8448 27.131 18.1009 26.8156 18.1009H25.3738C25.0578 18.1009 24.8008 17.8439 24.8008 17.528C24.8008 17.2121 25.0579 16.955 25.3738 16.955H26.8156C27.1309 16.955 27.3874 17.211 27.3885 17.5261V17.5295ZM16.59 9.66576C16.59 5.0145 20.374 1.23048 25.0253 1.23048C26.6934 1.23048 28.2874 1.71201 29.6495 2.60844C28.6675 4.18254 27.0147 6.20674 24.4109 7.74696C22.6247 8.80353 20.6654 9.47807 18.5872 9.75189H18.5488C18.5486 9.75189 18.5483 9.75189 18.548 9.75189C18.5477 9.75189 18.5475 9.75189 18.5472 9.75189H16.5899V9.66576H16.59ZM14.2 21.5094C13.5762 20.1807 13.7709 18.6537 14.7075 17.5253C15.8828 16.1093 16.5913 14.3597 16.59 12.518V10.9824H17.9329V15.6672C17.9329 17.9713 19.2279 19.9783 21.1279 20.9998C21.009 21.9809 20.3816 22.8378 19.4594 23.2388L18.4825 23.6636H17.5908C16.1232 23.6636 14.824 22.8382 14.2 21.5094ZM35.6173 31.0727L34.5894 40.7695H16.0018L14.9739 31.0727C14.9553 30.8969 15.0101 30.7278 15.1283 30.5964C15.2465 30.465 15.409 30.3927 15.5857 30.3927H35.0055C35.1822 30.3927 35.3447 30.465 35.4629 30.5964C35.5811 30.7278 35.6359 30.8969 35.6173 31.0727ZM39.5391 40.7695H35.8267L36.8409 31.2025C36.896 30.6828 36.7271 30.162 36.3777 29.7735C36.0282 29.385 35.5281 29.1622 35.0055 29.1622H32.5311V25.4107L36.6574 27.1792C38.4079 27.9552 39.5391 29.6934 39.5391 31.6075V40.7695ZM25.2956 33.2432C24.0064 33.2432 22.9577 34.292 22.9577 35.5811C22.9577 36.8702 24.0064 37.919 25.2956 37.919C26.5847 37.919 27.6335 36.8702 27.6335 35.5811C27.6335 34.292 26.5847 33.2432 25.2956 33.2432ZM25.2956 36.6885C24.6849 36.6885 24.1881 36.1917 24.1881 35.5811C24.1881 34.9704 24.6849 34.4736 25.2956 34.4736C25.9062 34.4736 26.403 34.9704 26.403 35.5811C26.403 36.1917 25.9063 36.6885 25.2956 36.6885Z" fill="#FF9957"/>
</g>
<defs>
<clipPath id="clip0_1_5737">
<rect width="42" height="42" fill="white"/>
</clipPath>
</defs>
</svg>
