<svg width="52" height="52" viewBox="0 0 52 52" fill="none" xmlns="http://www.w3.org/2000/svg">
<path d="M28.3876 40.9936C27.3263 42.8315 24.6734 42.8315 23.6122 40.9936L13.2654 23.0724C7.60563 13.2693 14.6804 1.01562 25.9999 1.01562C37.3195 1.01562 44.3941 13.2693 38.7343 23.0724L28.3876 40.9936Z" stroke="#006EA1" stroke-width="1.5" stroke-miterlimit="10" stroke-linecap="round" stroke-linejoin="round"/>
<path d="M32.4643 16.5806V22.9559C32.4643 23.518 32.0087 23.9736 31.4467 23.9736H20.5567C19.9947 23.9736 19.5391 23.518 19.5391 22.9559V16.5806" stroke="#006EA1" stroke-width="1.5" stroke-miterlimit="10" stroke-linecap="round" stroke-linejoin="round"/>
<path d="M35.886 15.2234L34.5916 16.7942C34.2341 17.228 33.5927 17.2898 33.159 16.9322L26.0006 11.0312L18.8422 16.9322C18.4086 17.2897 17.7671 17.228 17.4096 16.7942L16.1152 15.2234C15.7578 14.7898 15.8195 14.1484 16.2532 13.791L25.3534 6.28991C25.7289 5.97954 26.2723 5.97954 26.6478 6.28991L35.748 13.791C36.1816 14.1484 36.2434 14.7898 35.886 15.2234Z" stroke="#006EA1" stroke-width="1.5" stroke-miterlimit="10" stroke-linecap="round" stroke-linejoin="round"/>
<path d="M23.8828 23.8718V20.1944C23.8828 19.9134 24.1106 19.6855 24.3916 19.6855H27.6114C27.8924 19.6855 28.1202 19.9134 28.1202 20.1944V23.8718" stroke="#006EA1" stroke-width="1.5" stroke-miterlimit="10" stroke-linecap="round" stroke-linejoin="round"/>
<path d="M21.3708 50.9845H3.90805C3.28212 50.9845 2.80488 50.4248 2.9036 49.806L6.10322 29.7534C6.18264 29.2598 6.60799 28.8965 7.10869 28.8965H16.5091" stroke="#006EA1" stroke-width="1.5" stroke-miterlimit="10" stroke-linecap="round" stroke-linejoin="round"/>
<path d="M35.4897 28.8965H44.8901C45.3908 28.8965 45.8162 29.2598 45.8956 29.7534L49.0952 49.806C49.1939 50.4247 48.7166 50.9845 48.0907 50.9845H30.6445" stroke="#006EA1" stroke-width="1.5" stroke-miterlimit="10" stroke-linecap="round" stroke-linejoin="round"/>
<path d="M4.77344 40.314H17.042C17.6625 40.314 18.1386 40.8645 18.049 41.4785L16.7249 50.5581" stroke="#006EA1" stroke-width="1.5" stroke-miterlimit="10" stroke-linecap="round" stroke-linejoin="round"/>
<path d="M47.9426 43.7046H35.4475C34.827 43.7046 34.351 44.2552 34.4405 44.8691L35.2701 50.5577" stroke="#006EA1" stroke-width="1.5" stroke-miterlimit="10" stroke-linecap="round" stroke-linejoin="round"/>
<path d="M47.4696 39.6342H34.5579C34.0525 39.6342 33.6237 39.2634 33.5508 38.7633L32.8555 33.9941H46.1863" stroke="#006EA1" stroke-width="1.5" stroke-miterlimit="10" stroke-linecap="round" stroke-linejoin="round"/>
<path d="M4.77344 40.314H17.042C17.6625 40.314 18.1386 40.8645 18.049 41.4785L16.7249 50.5581" stroke="#006EA1" stroke-width="1.5" stroke-miterlimit="10" stroke-linecap="round" stroke-linejoin="round"/>
<path d="M5.47656 33.6889H11.2161C11.6976 33.6889 12.1133 33.3514 12.2121 32.88L12.9898 29.1719" stroke="#006EA1" stroke-width="1.5" stroke-miterlimit="10" stroke-linecap="round" stroke-linejoin="round"/>
<circle cx="26" cy="50.9844" r="1.01562" fill="#006EA1"/>
</svg>
