<svg width="52" height="52" viewBox="0 0 52 52" fill="none" xmlns="http://www.w3.org/2000/svg">
<g clip-path="url(#clip0_1_2626)">
<path d="M33.1211 46.2578H36.857C38.2866 46.2578 39.553 45.4009 40.086 44.0748L41.7622 39.8979" stroke="#006EA1" stroke-width="1.5" stroke-miterlimit="10" stroke-linecap="round" stroke-linejoin="round"/>
<path d="M33.1211 49.3928H36.857C39.574 49.3928 41.9827 47.7646 42.9953 45.243L45.1763 39.8101" stroke="#006EA1" stroke-width="1.5" stroke-miterlimit="10" stroke-linecap="round" stroke-linejoin="round"/>
<path d="M40.168 39.7954L43.8938 40.0362C45.1143 40.1152 46.2403 39.3804 46.6586 38.2304L47.4163 36.1484" stroke="#006EA1" stroke-width="1.5" stroke-miterlimit="10" stroke-linecap="round" stroke-linejoin="round"/>
<path d="M44.9883 26.5522L47.997 28.7639C48.9829 29.4883 49.3721 30.7752 48.9549 31.9241L48.6602 32.7336" stroke="#006EA1" stroke-width="1.5" stroke-miterlimit="10" stroke-linecap="round" stroke-linejoin="round"/>
<path d="M43.3983 23.6404C44.7013 24.1146 45.3731 25.5554 44.8989 26.8583L40.2964 39.5037C39.8222 40.8066 38.3814 41.4785 37.0784 41.0043C35.7755 40.5301 35.1037 39.0893 35.5778 37.7863L40.1804 25.141C40.6546 23.8379 42.0954 23.1661 43.3983 23.6404Z" stroke="#006EA1" stroke-width="1.5" stroke-miterlimit="10" stroke-linecap="round" stroke-linejoin="round"/>
<path d="M30.0923 51.2383C31.977 51.2383 33.5049 49.7104 33.5049 47.8257C33.5049 45.941 31.977 44.4131 30.0923 44.4131C28.2076 44.4131 26.6797 45.941 26.6797 47.8257C26.6797 49.7104 28.2076 51.2383 30.0923 51.2383Z" stroke="#006EA1" stroke-width="1.5" stroke-miterlimit="10" stroke-linecap="round" stroke-linejoin="round"/>
<path d="M11.7705 40.9243H14.3786L21.1983 46.7591C22.1115 47.5406 23.5209 46.892 23.5209 45.6902V40.9244H28.0325C30.6966 40.9244 32.8553 38.7647 32.8553 36.1016V23.0183C32.8553 20.3542 30.6966 18.1943 28.0325 18.1943H6.45565C3.79256 18.1943 1.63281 20.3541 1.63281 23.0183V36.1014C1.63281 38.7645 3.79256 40.9242 6.45565 40.9242H8.13804" stroke="#006EA1" stroke-width="1.5" stroke-miterlimit="10" stroke-linecap="round" stroke-linejoin="round"/>
<path d="M6.65234 26.7905H27.8356" stroke="#006EA1" stroke-width="1.5" stroke-miterlimit="10" stroke-linecap="round" stroke-linejoin="round"/>
<path d="M6.65234 30.5083H27.8356" stroke="#006EA1" stroke-width="1.5" stroke-miterlimit="10" stroke-linecap="round" stroke-linejoin="round"/>
<path d="M6.65234 34.2261H24.3704" stroke="#006EA1" stroke-width="1.5" stroke-miterlimit="10" stroke-linecap="round" stroke-linejoin="round"/>
<path d="M5.09375 18.3906C6.06104 14.2942 8.14705 10.534 11.1983 7.48277C15.5334 3.14876 21.2967 0.761719 27.4261 0.761719C33.5555 0.761719 39.3188 3.14876 43.6539 7.48277C47.9879 11.8179 50.3749 17.581 50.3749 23.7106C50.3749 26.2813 49.9442 28.8241 49.1109 31.2298" stroke="#006EA1" stroke-width="1.5" stroke-miterlimit="10" stroke-linecap="round" stroke-linejoin="round"/>
<path d="M8.36719 18.1942C10.7626 9.93193 18.399 3.875 27.4221 3.875C38.3589 3.875 47.2574 12.7735 47.2574 23.7103C47.2574 25.1229 47.1069 26.526 46.8121 27.8949" stroke="#006EA1" stroke-width="1.5" stroke-miterlimit="10" stroke-linecap="round" stroke-linejoin="round"/>
</g>
<defs>
<clipPath id="clip0_1_2626">
<rect width="52" height="52" fill="white"/>
</clipPath>
</defs>
</svg>
