<svg width="52" height="52" viewBox="0 0 52 52" fill="none" xmlns="http://www.w3.org/2000/svg">
<mask id="mask0_1_2739" style="mask-type:luminance" maskUnits="userSpaceOnUse" x="0" y="0" width="52" height="52">
<path d="M0 3.8147e-06H52V52H0V3.8147e-06Z" fill="white"/>
</mask>
<g mask="url(#mask0_1_2739)">
<path d="M49.9667 26C49.9616 28.1375 49.9375 30.2751 49.9082 32.4125C49.8729 34.9912 49.8331 37.5711 49.1863 40.1057C48.5082 42.7636 47.1706 45.0559 45.0896 46.7529C42.8966 48.5412 40.2461 49.4812 37.3853 49.6551C33.5909 49.8859 29.7949 49.9771 25.999 49.9682C22.203 49.9771 18.407 49.8859 14.6127 49.6551C11.7519 49.4812 9.10132 48.5412 6.90838 46.7529C4.82737 45.0559 3.48979 42.7636 2.81156 40.1057C2.16481 37.5711 2.12499 34.9912 2.08975 32.4125C2.0605 30.2751 2.03623 28.1375 2.03125 26C2.03623 23.8625 2.0605 21.7249 2.08975 19.5876C2.12499 17.0088 2.16481 14.4289 2.81156 11.8943C3.48979 9.23642 4.82737 6.94415 6.90838 5.24714C9.10132 3.45883 11.7519 2.51887 14.6127 2.34489C18.407 2.11414 22.203 2.02294 25.999 2.03188C29.7949 2.02294 33.5909 2.11414 37.3853 2.34489C40.2461 2.51887 42.8966 3.45883 45.0896 5.24714C47.1706 6.94415 48.5082 9.23642 49.1863 11.8943C49.8331 14.4289 49.8729 17.0088 49.9082 19.5876C49.9375 21.7249 49.9616 23.8625 49.9667 26Z" stroke="#006EA1" stroke-width="2" stroke-miterlimit="10"/>
<path d="M36.5625 26C36.5625 31.8896 31.788 36.6641 25.8984 36.6641C20.0088 36.6641 15.2344 31.8896 15.2344 26C15.2344 20.1104 20.0088 15.3359 25.8984 15.3359C31.788 15.3359 36.5625 20.1104 36.5625 26Z" stroke="#006EA1" stroke-width="2" stroke-miterlimit="10"/>
<path d="M43.0625 12.2891C43.0625 13.9718 41.6983 15.3359 40.0156 15.3359C38.3329 15.3359 36.9688 13.9718 36.9688 12.2891C36.9688 10.6064 38.3329 9.24219 40.0156 9.24219C41.6983 9.24219 43.0625 10.6064 43.0625 12.2891Z" fill="#006EA1"/>
</g>
</svg>
