<svg width="52" height="52" viewBox="0 0 52 52" fill="none" xmlns="http://www.w3.org/2000/svg">
<path d="M9.95312 10.1562H49.9688L45.9062 33.7188H14.2188L8.53125 2.03125H2.03125" stroke="#006EA1" stroke-width="2" stroke-miterlimit="10" stroke-linecap="round" stroke-linejoin="round"/>
<path d="M45.9062 41.8438H14.2188C11.9751 41.8438 10.1562 40.0249 10.1562 37.7812C10.1562 35.5376 11.9751 33.7188 14.2188 33.7188" stroke="#006EA1" stroke-width="2" stroke-miterlimit="10" stroke-linecap="round" stroke-linejoin="round"/>
<path d="M18.2812 49.9688C20.5249 49.9688 22.3438 48.1499 22.3438 45.9062C22.3438 43.6626 20.5249 41.8438 18.2812 41.8438C16.0376 41.8438 14.2188 43.6626 14.2188 45.9062C14.2188 48.1499 16.0376 49.9688 18.2812 49.9688Z" stroke="#006EA1" stroke-width="2" stroke-miterlimit="10" stroke-linecap="round" stroke-linejoin="round"/>
<path d="M37.7812 49.9688C40.0249 49.9688 41.8438 48.1499 41.8438 45.9062C41.8438 43.6626 40.0249 41.8438 37.7812 41.8438C35.5376 41.8438 33.7188 43.6626 33.7188 45.9062C33.7188 48.1499 35.5376 49.9688 37.7812 49.9688Z" stroke="#006EA1" stroke-width="2" stroke-miterlimit="10" stroke-linecap="round" stroke-linejoin="round"/>
<path d="M21.9375 18.2812V25.5938" stroke="#006EA1" stroke-width="2" stroke-miterlimit="10" stroke-linecap="round" stroke-linejoin="round"/>
<path d="M30.0625 18.2812V25.5938" stroke="#006EA1" stroke-width="2" stroke-miterlimit="10" stroke-linecap="round" stroke-linejoin="round"/>
<path d="M38.1875 18.2812V25.5938" stroke="#006EA1" stroke-width="2" stroke-miterlimit="10" stroke-linecap="round" stroke-linejoin="round"/>
</svg>
