<svg width="31" height="31" viewBox="0 0 31 31" fill="none" xmlns="http://www.w3.org/2000/svg">
<path d="M30.9199 17.7662L29.3508 15.3653C28.6578 14.3044 27.4806 13.6709 26.2009 13.6709H22.1428V11.3356C22.1428 9.90982 20.9833 8.75035 19.5575 8.75035H11.9607C11.5344 6.52405 9.57476 4.83496 7.22598 4.83496C4.56636 4.83496 2.40284 6.99876 2.40284 9.6581C2.40284 11.3303 3.25907 12.8054 4.55537 13.6709H0.492169C0.220181 13.6709 0 13.8911 0 14.1631C0 14.4351 0.220181 14.6552 0.492169 14.6552H5.41273V15.6393H3.44433C3.17263 15.6393 2.95245 15.8595 2.95245 16.1315C2.95245 16.4035 3.17263 16.6234 3.44433 16.6234H5.41273V17.6074H0.492169C0.220181 17.6074 0 17.8276 0 18.0996C0 18.3716 0.220181 18.5917 0.492169 18.5917H5.41273V20.771C4.54524 21.1537 3.9365 22.0192 3.9365 23.0266V23.5123C3.9365 23.7843 4.15697 24.0045 4.42867 24.0045H8.79287C9.07274 25.2084 10.1522 26.1094 11.4404 26.1094C12.7288 26.1094 13.808 25.2084 14.0879 24.0045H23.5548C23.835 25.2084 24.9145 26.1094 26.2023 26.1094C27.4902 26.1094 28.57 25.2084 28.8499 24.0045H30.508C30.78 24.0045 30.9999 23.7843 30.9999 23.5123V18.0354C30.9999 17.9397 30.972 17.8459 30.9199 17.7662ZM3.3869 9.6581C3.3869 7.54132 5.1092 5.81902 7.22598 5.81902C9.34304 5.81902 11.0651 7.54132 11.0651 9.6581C11.0651 11.7749 9.34304 13.4972 7.22598 13.4972C5.1092 13.4972 3.3869 11.7749 3.3869 9.6581ZM6.39678 18.5917H7.38084C7.65283 18.5917 7.87301 18.3716 7.87301 18.0996C7.87301 17.8276 7.65283 17.6074 7.38084 17.6074H6.39678V16.6234H9.8414C10.1131 16.6234 10.3333 16.4035 10.3333 16.1315C10.3333 15.8595 10.1131 15.6393 9.8414 15.6393H6.39678V14.6552H12.7936C13.0653 14.6552 13.2857 14.4351 13.2857 14.1631C13.2857 13.8911 13.0653 13.6709 12.7936 13.6709H9.89659C11.1729 12.8186 12.0196 11.3748 12.0455 9.7344H19.5578C20.4405 9.7344 21.1587 10.4529 21.1587 11.3356V20.5599H6.40298C6.40101 20.5599 6.39904 20.5604 6.39678 20.5604V18.5917ZM21.1587 23.0201H14.1327C14.0552 22.4542 13.8041 21.944 13.4333 21.5439H21.1587V23.0201ZM6.40298 21.5439H9.4475C9.07696 21.944 8.82553 22.4542 8.74838 23.0201H4.92056C4.92394 22.2059 5.58786 21.5439 6.40298 21.5439ZM11.4404 25.1254C10.4834 25.1254 9.70428 24.3466 9.70428 23.3893C9.70428 22.4322 10.4834 21.6532 11.4404 21.6532C12.3977 21.6532 13.1765 22.4322 13.1765 23.3893C13.1765 24.3466 12.3977 25.1254 11.4404 25.1254ZM26.2023 25.1254C25.2453 25.1254 24.4662 24.3466 24.4662 23.3893C24.4662 22.4322 25.2453 21.6532 26.2023 21.6532C27.1596 21.6532 27.9384 22.4322 27.9384 23.3893C27.9384 24.3466 27.1596 25.1254 26.2023 25.1254ZM30.0158 23.0201H28.8946C28.7136 21.6948 27.5766 20.6691 26.2023 20.6691C24.828 20.6691 23.6914 21.6948 23.5101 23.0201H22.1428V14.6552H26.2009C27.1467 14.6552 28.0164 15.1218 28.5272 15.9034L30.0158 18.1818V23.0201Z" fill="#0A1929"/>
<path d="M27.0074 23.3895C27.0074 23.834 26.647 24.1944 26.2024 24.1944C25.7579 24.1944 25.3975 23.834 25.3975 23.3895C25.3975 22.9449 25.7579 22.5845 26.2024 22.5845C26.647 22.5845 27.0074 22.9449 27.0074 23.3895Z" fill="#0A1929"/>
<path d="M12.2454 23.3895C12.2454 23.834 11.885 24.1944 11.4404 24.1944C10.9961 24.1944 10.6357 23.834 10.6357 23.3895C10.6357 22.9449 10.9961 22.5845 11.4404 22.5845C11.885 22.5845 12.2454 22.9449 12.2454 23.3895Z" fill="#0A1929"/>
<path d="M7.87302 9.65838V7.50556C7.87302 7.23357 7.65284 7.01367 7.38086 7.01367C7.10915 7.01367 6.88897 7.23357 6.88897 7.50556V9.49789L5.88464 10.8756C5.72443 11.0952 5.77258 11.4026 5.9922 11.5626C6.08004 11.6268 6.18141 11.6575 6.28192 11.6575C6.43368 11.6575 6.58347 11.5873 6.67977 11.455L7.7787 9.9481C7.8398 9.8642 7.87302 9.76283 7.87302 9.65838Z" fill="#0A1929"/>
<path d="M26.0369 15.147H25.0957C24.8237 15.147 24.6035 15.3672 24.6035 15.6391V19.0835C24.6035 19.3555 24.8237 19.5756 25.0957 19.5756H28.4074C28.716 19.5756 28.9922 19.416 29.1471 19.1494C29.3019 18.8827 29.3022 18.5634 29.1496 18.2974L28.0005 16.2862C27.5993 15.584 26.8467 15.147 26.0369 15.147ZM25.5879 18.5916V16.1313H26.0369C26.4945 16.1313 26.9194 16.3777 27.146 16.7747L28.1841 18.5916H25.5879Z" fill="#0A1929"/>
</svg>
