<svg width="31" height="31" viewBox="0 0 31 31" fill="none" xmlns="http://www.w3.org/2000/svg">
<path d="M8.58828 20.862V29.1546C8.43651 29.1546 8.28481 29.1189 8.14506 29.0476L2.23593 26.035C1.89313 25.8604 1.67578 25.4988 1.67578 25.1031V17.9696C1.67578 17.7701 1.73102 17.5793 1.82982 17.4165L8.58828 20.862Z" stroke="#0A1929" stroke-miterlimit="10" stroke-linecap="round" stroke-linejoin="round"/>
<path d="M12.9662 27.0417L15.4996 25.7505V17.3384L8.58789 20.8622V29.1545C8.73926 29.1545 8.89136 29.1189 9.03066 29.0476L11.1937 27.9451" stroke="#0A1929" stroke-miterlimit="10" stroke-linecap="round" stroke-linejoin="round"/>
<path d="M15.4997 17.3384L8.588 20.8622L1.8291 17.4165C1.92262 17.263 2.05519 17.1339 2.21668 17.0477L8.58806 13.6235L15.4997 17.3384Z" stroke="#0A1929" stroke-miterlimit="10" stroke-linecap="round" stroke-linejoin="round"/>
<path d="M22.4121 20.862V29.1546C22.5639 29.1546 22.7156 29.1189 22.8553 29.0476L28.7645 26.0351C29.1073 25.8605 29.3246 25.4988 29.3246 25.1032V17.9696C29.3246 17.7701 29.2694 17.5793 29.1706 17.4165L22.4121 20.862Z" stroke="#0A1929" stroke-miterlimit="10" stroke-linecap="round" stroke-linejoin="round"/>
<path d="M22.4117 20.8617V29.154C22.2603 29.154 22.1082 29.1184 21.9689 29.0471L15.5 25.75V17.3379L22.4117 20.8617Z" stroke="#0A1929" stroke-miterlimit="10" stroke-linecap="round" stroke-linejoin="round"/>
<path d="M18.8434 15.541L15.5 17.3381L22.4117 20.8618L29.1706 17.4161C29.077 17.2627 28.9445 17.1335 28.783 17.0474L25.9803 15.5411" stroke="#0A1929" stroke-miterlimit="10" stroke-linecap="round" stroke-linejoin="round"/>
<path d="M15.4997 8.95098V17.3383L8.58806 13.6234L8.58789 6.05889C8.58789 5.8594 8.64313 5.66864 8.74188 5.50586L15.4997 8.95098Z" stroke="#0A1929" stroke-miterlimit="10" stroke-linecap="round" stroke-linejoin="round"/>
<path d="M15.5 17.3383V8.95098L22.2575 5.50586C22.3563 5.66869 22.4115 5.85945 22.4115 6.05889L22.4116 7.58296" stroke="#0A1929" stroke-miterlimit="10" stroke-linecap="round" stroke-linejoin="round"/>
<path d="M22.2575 5.50564L15.5 8.95082L8.74219 5.50564C8.83576 5.35193 8.96799 5.22303 9.12944 5.13658L15.0377 1.96255C15.0393 1.96188 15.0406 1.96088 15.0422 1.96022C15.3311 1.80679 15.6738 1.80751 15.962 1.96255L21.8703 5.13658C22.0317 5.22309 22.1643 5.35193 22.2575 5.50564Z" stroke="#0A1929" stroke-miterlimit="10" stroke-linecap="round" stroke-linejoin="round"/>
<path d="M25.4021 10.891C24.6615 10.0809 23.596 9.57275 22.4118 9.57275C20.1748 9.57275 18.3613 11.3862 18.3613 13.6233C18.3613 15.8603 20.1748 17.6738 22.4118 17.6738C24.6489 17.6738 26.4623 15.8603 26.4623 13.6233C26.4623 13.2796 26.4195 12.9459 26.3389 12.6272" stroke="#0A1929" stroke-miterlimit="10" stroke-linecap="round" stroke-linejoin="round"/>
<path d="M20.5117 13.7938L21.8612 15.0442L24.2399 12.5435" stroke="#0A1929" stroke-miterlimit="10" stroke-linecap="round" stroke-linejoin="round"/>
</svg>
