<svg width="42" height="42" viewBox="0 0 42 42" fill="none" xmlns="http://www.w3.org/2000/svg">
<path fill-rule="evenodd" clip-rule="evenodd" d="M26.6377 24.5766H20.1801C20.0867 24.5767 19.9943 24.5569 19.9092 24.5185C19.8241 24.48 19.7482 24.4238 19.6866 24.3536C19.6249 24.2835 19.579 24.2009 19.5519 24.1115C19.5248 24.0221 19.5171 23.928 19.5293 23.8354C19.5777 23.2029 19.6868 22.4811 19.8047 21.7005C19.9945 20.445 20.2079 19.0323 20.2079 17.7268C20.2079 15.519 19.5517 13.5794 16.874 13.3282C16.6191 16.8704 16.0473 19.2968 14.8178 21.272C13.5667 23.2818 11.6727 24.7693 8.77652 26.4352L10.3887 37.5397C11.7176 38.3178 12.4458 38.8119 13.8694 39.0148C15.2798 39.2159 17.4887 39.215 21.986 39.2136C26.1168 39.2122 16.5555 39.2108 23.2615 39.2108C26.1788 39.2108 25.5956 37.4066 25.0416 37.2584C24.8879 37.2174 24.7543 37.1219 24.6658 36.9897C24.5774 36.8575 24.54 36.6976 24.5607 36.5398C24.5814 36.3821 24.6588 36.2373 24.7784 36.1324C24.898 36.0275 25.0517 35.9697 25.2107 35.9697V35.969C27.3189 35.969 27.6687 33.6081 26.2749 33.1865C25.5551 32.9688 25.7175 31.9021 26.4645 31.9022C29.2154 31.9022 29.137 29.1095 27.5326 28.8734C26.8199 28.7685 26.7533 27.7152 27.5419 27.5749C27.8782 27.505 28.1817 27.3254 28.405 27.0645C28.5519 26.8892 28.6562 26.6822 28.7097 26.4598C27.9108 25.9626 27.2087 25.3245 26.6377 24.5766ZM35.9133 17.0309C36.0371 16.9114 36.2028 16.8452 36.3749 16.8467C36.547 16.8482 36.7116 16.9172 36.8332 17.0389C36.9549 17.1606 37.0239 17.3252 37.0254 17.4972C37.0269 17.6693 36.9608 17.8351 36.8412 17.9589L32.0567 22.7433C31.9337 22.8664 31.7668 22.9355 31.5928 22.9355C31.4188 22.9355 31.2519 22.8664 31.1288 22.7433L28.7365 20.3511C28.6745 20.2904 28.6251 20.2181 28.5912 20.1381C28.5573 20.0582 28.5396 19.9724 28.5391 19.8856C28.5386 19.7988 28.5554 19.7128 28.5884 19.6325C28.6213 19.5522 28.6699 19.4793 28.7313 19.4179C28.7927 19.3565 28.8656 19.3079 28.9459 19.2749C29.0262 19.2419 29.1122 19.2252 29.199 19.2257C29.2858 19.2262 29.3717 19.2439 29.4516 19.2778C29.5315 19.3116 29.6039 19.3611 29.6646 19.4231L31.5928 21.3513L35.9133 17.0309ZM29.8933 27.0612C29.7337 27.5081 29.4613 27.9063 29.1027 28.2171C30.527 29.5189 30.1805 32.1146 28.0224 32.9465C28.9231 34.3639 28.2347 36.3508 26.5725 37.0284C26.7659 37.4171 26.8408 37.8542 26.7878 38.2852C26.7348 38.7161 26.5562 39.122 26.2743 39.4523C25.7488 40.065 24.7977 40.5232 23.2615 40.5232C15.6665 40.5232 25.3041 40.5197 21.986 40.5209C17.4133 40.5224 15.1676 40.5231 13.6849 40.3118C12.3833 40.1262 11.6774 39.7957 10.6288 39.1935L10.7038 39.7498C10.7038 39.9238 10.6347 40.0908 10.5116 40.2138C10.3886 40.3369 10.2216 40.406 10.0476 40.406H2.13281C1.95876 40.406 1.79184 40.3369 1.66877 40.2138C1.5457 40.0908 1.47656 39.9238 1.47656 39.7498V23.9203C1.47656 23.7463 1.5457 23.5793 1.66877 23.4563C1.79184 23.3332 1.95876 23.2641 2.13281 23.2641H7.74941V23.2652C7.90716 23.2652 8.0596 23.3222 8.17874 23.4256C8.29787 23.529 8.37571 23.6719 8.39795 23.828L8.57341 25.0367C11.0282 23.5856 12.6504 22.274 13.7052 20.5798C14.8738 18.7025 15.3868 16.2951 15.6064 12.6474C15.6059 12.5609 15.6225 12.4752 15.6553 12.3952C15.688 12.3152 15.7363 12.2425 15.7973 12.1812C15.8583 12.1199 15.9308 12.0713 16.0107 12.0382C16.0906 12.0051 16.1762 11.9881 16.2627 11.9883C22.5545 11.9883 21.714 17.8441 21.1018 21.8956C21.028 22.3821 20.9583 22.8451 20.9059 23.2644H25.8287C25.042 21.6409 24.8482 19.7934 25.2807 18.042C25.7133 16.2906 26.745 14.7457 28.197 13.6751C29.6491 12.6046 31.4299 12.0758 33.2309 12.1804C35.0319 12.2851 36.7395 13.0166 38.0578 14.2481C39.3761 15.4797 40.2219 17.1336 40.4487 18.9233C40.6755 20.7131 40.2689 22.5257 39.2995 24.0471C38.3301 25.5686 36.8589 26.7029 35.1409 27.2535C33.423 27.804 31.5665 27.7362 29.8933 27.0616V27.0612ZM32.789 13.4651C34.0592 13.4651 35.3008 13.8417 36.3569 14.5474C37.413 15.2531 38.2362 16.2561 38.7223 17.4295C39.2083 18.603 39.3355 19.8943 39.0877 21.14C38.8399 22.3858 38.2283 23.5301 37.3301 24.4282C36.432 25.3264 35.2877 25.938 34.0419 26.1858C32.7962 26.4336 31.5049 26.3064 30.3314 25.8204C29.1579 25.3343 28.155 24.5112 27.4493 23.4551C26.7436 22.399 26.367 21.1573 26.367 19.8872C26.367 19.0438 26.5331 18.2087 26.8558 17.4295C27.1785 16.6503 27.6516 15.9424 28.2479 15.346C28.8443 14.7497 29.5522 14.2766 30.3314 13.9539C31.1106 13.6312 31.9457 13.4651 32.789 13.4651ZM16.5217 2.13281C16.5217 1.95876 16.5908 1.79184 16.7139 1.66877C16.837 1.5457 17.0039 1.47656 17.1779 1.47656C17.352 1.47656 17.5189 1.5457 17.642 1.66877C17.765 1.79184 17.8342 1.95876 17.8342 2.13281V5.06379C17.8342 5.23784 17.765 5.40476 17.642 5.52783C17.5189 5.6509 17.352 5.72004 17.1779 5.72004C17.0039 5.72004 16.837 5.6509 16.7139 5.52783C16.5908 5.40476 16.5217 5.23784 16.5217 5.06379V2.13281ZM5.83045 9.33663C5.75538 9.29389 5.68951 9.23672 5.63664 9.16841C5.58376 9.10009 5.54493 9.02199 5.52238 8.9386C5.49982 8.85521 5.494 8.76818 5.50523 8.68253C5.51647 8.59688 5.54454 8.5143 5.58784 8.43955C5.63114 8.3648 5.6888 8.29935 5.7575 8.24699C5.82621 8.19462 5.9046 8.15637 5.98815 8.13444C6.07171 8.11251 6.15877 8.10733 6.24434 8.1192C6.32991 8.13108 6.41228 8.15976 6.4867 8.20362L9.02475 9.66894C9.17501 9.75597 9.28454 9.89911 9.32925 10.0669C9.37397 10.2347 9.3502 10.4134 9.26317 10.5636C9.17615 10.7139 9.033 10.8234 8.86522 10.8681C8.69743 10.9128 8.51876 10.8891 8.3685 10.802L5.83045 9.33663ZM10.2129 4.30344C10.1259 4.15318 10.1021 3.97451 10.1468 3.80673C10.1915 3.63894 10.3011 3.49579 10.4513 3.40877C10.6016 3.32174 10.7802 3.29797 10.948 3.34269C11.1158 3.3874 11.259 3.49693 11.346 3.64719L12.8109 6.18516C12.8548 6.25958 12.8834 6.34195 12.8953 6.42752C12.9072 6.51308 12.902 6.60015 12.8801 6.68371C12.8581 6.76726 12.8199 6.84565 12.7675 6.91436C12.7152 6.98306 12.6497 7.04072 12.575 7.08402C12.5002 7.12732 12.4176 7.15539 12.332 7.16663C12.2463 7.17786 12.1593 7.17203 12.0759 7.14948C11.9925 7.12693 11.9144 7.0881 11.8461 7.03522C11.7778 6.98235 11.7206 6.91648 11.6779 6.84141L10.2129 4.30344ZM28.1073 7.79108C28.1817 7.74723 28.2641 7.71854 28.3496 7.70667C28.4352 7.6948 28.5223 7.69998 28.6058 7.72191C28.6894 7.74384 28.7678 7.78209 28.8365 7.83445C28.9052 7.88682 28.9628 7.95226 29.0061 8.02701C29.0494 8.10177 29.0775 8.18435 29.0887 8.27C29.1 8.35565 29.0941 8.44268 29.0716 8.52607C29.049 8.60946 29.0102 8.68756 28.9573 8.75587C28.9045 8.82418 28.8386 8.88136 28.7635 8.9241L26.2254 10.3894C26.0752 10.4749 25.8974 10.4976 25.7306 10.4525C25.5638 10.4073 25.4216 10.2981 25.335 10.1486C25.2484 9.99909 25.2244 9.82139 25.2682 9.65426C25.3121 9.48713 25.4203 9.34412 25.5691 9.25641L28.1071 7.79108H28.1073ZM23.0741 3.40897C23.1172 3.33457 23.1745 3.26939 23.2428 3.21714C23.3111 3.16489 23.389 3.12661 23.472 3.10447C23.5551 3.08233 23.6417 3.07677 23.727 3.08811C23.8122 3.09944 23.8944 3.12746 23.9688 3.17055C24.0432 3.21364 24.1083 3.27096 24.1606 3.33924C24.2128 3.40752 24.2511 3.48543 24.2733 3.56851C24.2954 3.65158 24.301 3.73821 24.2896 3.82344C24.2783 3.90866 24.2503 3.99082 24.2072 4.06522L22.7418 6.60352C22.699 6.67859 22.6419 6.74446 22.5735 6.79733C22.5052 6.85021 22.4271 6.88904 22.3437 6.91159C22.2604 6.93414 22.1733 6.93997 22.0877 6.92873C22.002 6.9175 21.9194 6.88942 21.8447 6.84613C21.7699 6.80283 21.7045 6.74517 21.6521 6.67646C21.5998 6.60776 21.5615 6.52937 21.5396 6.44582C21.5176 6.36226 21.5125 6.27519 21.5243 6.18963C21.5362 6.10406 21.5649 6.02169 21.6088 5.94727L23.0741 3.40922V3.40897ZM9.13762 38.0409L9.29045 39.0935H2.78906V24.5766H7.18274L9.13762 38.0409Z" fill="#FF9957"/>
</svg>
