<svg width="52" height="52" viewBox="0 0 52 52" fill="none" xmlns="http://www.w3.org/2000/svg">
<mask id="mask0_1_2467" style="mask-type:luminance" maskUnits="userSpaceOnUse" x="0" y="0" width="52" height="52">
<path d="M0 3.8147e-06H52V52H0V3.8147e-06Z" fill="white"/>
</mask>
<g mask="url(#mask0_1_2467)">
<path d="M17.6016 33.7018V39.0467C17.6016 40.633 18.8875 41.9189 20.4739 41.9189H37.5761C39.1624 41.9189 40.4484 40.633 40.4484 39.0467V3.88806C40.4484 2.30175 39.1624 1.01577 37.5761 1.01577H20.4739C18.8875 1.01577 17.6016 2.30175 17.6016 3.88806V24.7648" stroke="#FF9957" stroke-width="1.5" stroke-miterlimit="10" stroke-linecap="round" stroke-linejoin="round"/>
<path d="M43.7164 18.6279H42.8346C41.5161 18.6279 40.4473 17.5591 40.4473 16.2405V14.8347C40.4473 13.5161 41.5161 12.4471 42.8346 12.4471H43.7164C45.4232 12.4471 46.8068 13.8308 46.8068 15.5376C46.8068 17.2443 45.4232 18.6279 43.7164 18.6279Z" stroke="#FF9957" stroke-width="1.5" stroke-miterlimit="10" stroke-linecap="round" stroke-linejoin="round"/>
<path d="M43.7164 24.8086H42.8346C41.5161 24.8086 40.4473 23.7398 40.4473 22.4212V21.0152C40.4473 19.6968 41.5161 18.6278 42.8346 18.6278H43.7164C45.4232 18.6278 46.8068 20.0115 46.8068 21.7183C46.8068 23.425 45.4232 24.8086 43.7164 24.8086Z" stroke="#FF9957" stroke-width="1.5" stroke-miterlimit="10" stroke-linecap="round" stroke-linejoin="round"/>
<path d="M43.7164 30.9893H42.8346C41.5161 30.9893 40.4473 29.9204 40.4473 28.6018V27.1959C40.4473 25.8774 41.5161 24.8085 42.8346 24.8085H43.7164C45.4232 24.8085 46.8068 26.1922 46.8068 27.8988V27.8989C46.8068 29.6057 45.4232 30.9893 43.7164 30.9893Z" stroke="#FF9957" stroke-width="1.5" stroke-miterlimit="10" stroke-linecap="round" stroke-linejoin="round"/>
<path d="M43.7164 37.1704H42.8346C41.5161 37.1704 40.4473 36.1015 40.4473 34.783V33.3771C40.4473 32.0585 41.5161 30.9896 42.8346 30.9896H43.7164C45.4232 30.9896 46.8068 32.3732 46.8068 34.08C46.8068 35.7867 45.4232 37.1704 43.7164 37.1704Z" stroke="#FF9957" stroke-width="1.5" stroke-miterlimit="10" stroke-linecap="round" stroke-linejoin="round"/>
<path d="M17.6012 24.7647V17.614C17.6012 14.2218 15.5884 11.3933 12.381 10.7606C11.6761 10.6224 11.0221 11.1688 11.0221 11.8869V24.3463C11.0221 26.0248 10.7216 27.6902 10.1253 29.2591C9.30755 31.411 8.22602 34.9565 8.22602 38.6567L5.19336 42.7456V50.9844H21.1356L24.8833 46.5339C24.8833 46.5339 32.3877 45.9438 35.7759 41.9189H20.4734C18.8872 41.9189 17.6012 40.633 17.6012 39.0467V33.7017" stroke="#FF9957" stroke-width="1.5" stroke-miterlimit="10" stroke-linecap="round" stroke-linejoin="round"/>
<path d="M29.0336 5.17432C27.4218 5.17432 26.1152 3.86761 26.1152 2.25582V1.01564H31.9521V2.25582C31.9521 3.86761 30.6455 5.17432 29.0336 5.17432Z" stroke="#FF9957" stroke-width="1.5" stroke-miterlimit="10" stroke-linecap="round" stroke-linejoin="round"/>
<path d="M31.4455 35.1108H26.594C25.2152 35.1108 24.0977 33.9932 24.0977 32.6145C24.0977 31.2359 25.2152 30.1183 26.594 30.1183H31.4455C32.8241 30.1183 33.9418 31.2359 33.9418 32.6145C33.9418 33.9932 32.8241 35.1108 31.4455 35.1108Z" stroke="#FF9957" stroke-width="1.5" stroke-miterlimit="10" stroke-linecap="round" stroke-linejoin="round"/>
<path d="M23.0234 14.0622L22.0078 23.6382H36.0294L35.0138 14.0622H23.0234Z" stroke="#FF9957" stroke-width="1.5" stroke-miterlimit="10" stroke-linecap="round" stroke-linejoin="round"/>
<path d="M31.3359 16.0879V12.2962C31.3359 11.0249 30.3055 9.99434 29.0341 9.99434C27.7629 9.99434 26.7324 11.0249 26.7324 12.2962V16.0879" stroke="#FF9957" stroke-width="1.5" stroke-miterlimit="10" stroke-linecap="round" stroke-linejoin="round"/>
</g>
</svg>
