<svg width="52" height="52" viewBox="0 0 52 52" fill="none" xmlns="http://www.w3.org/2000/svg">
<mask id="mask0_1_2519" style="mask-type:luminance" maskUnits="userSpaceOnUse" x="0" y="0" width="52" height="52">
<path d="M0 3.8147e-06H52V52H0V3.8147e-06Z" fill="white"/>
</mask>
<g mask="url(#mask0_1_2519)">
<path d="M45.9446 10.6863L27.0792 1.02206C26.4004 0.674311 25.5959 0.674311 24.9172 1.02206L6.05167 10.6863C5.25978 11.092 4.76172 11.9068 4.76172 12.7965V47.7183H25.9981H47.2345V12.7965C47.2345 11.9068 46.7365 11.092 45.9446 10.6863Z" stroke="#FF9957" stroke-width="1.5" stroke-miterlimit="10" stroke-linecap="round" stroke-linejoin="round"/>
<path d="M49.1747 47.7184H2.82517C2.52698 47.7184 2.28516 47.9602 2.28516 48.2584V50.6982C2.28516 50.9965 2.52698 51.2383 2.82517 51.2383H49.1747C49.473 51.2383 49.7147 50.9965 49.7147 50.6982V48.2584C49.7147 47.9602 49.473 47.7184 49.1747 47.7184Z" stroke="#FF9957" stroke-width="1.5" stroke-miterlimit="10" stroke-linecap="round" stroke-linejoin="round"/>
<path d="M28.0703 36.6992V41.9248C28.0703 42.194 28.2885 42.4121 28.5577 42.4121H31.29C31.5593 42.4121 31.7773 42.194 31.7773 41.9248V36.6992H28.0703Z" stroke="#FF9957" stroke-width="1.5" stroke-miterlimit="10" stroke-linecap="round" stroke-linejoin="round"/>
<path d="M21.7886 36.6992H8.68281C8.24528 36.6992 7.89062 37.0539 7.89062 37.4913V46.9267C7.89062 47.3641 8.24528 47.7188 8.68281 47.7188H21.7886C22.2261 47.7188 22.5807 47.3641 22.5807 46.9267V37.4913C22.5807 37.0539 22.2261 36.6992 21.7886 36.6992Z" stroke="#FF9957" stroke-width="1.5" stroke-miterlimit="10" stroke-linecap="round" stroke-linejoin="round"/>
<path d="M13.3828 36.6987V41.9243C13.3828 42.1935 13.601 42.4116 13.8701 42.4116H16.6025C16.8717 42.4116 17.0898 42.1935 17.0898 41.9243V36.6987H13.3828Z" stroke="#FF9957" stroke-width="1.5" stroke-miterlimit="10" stroke-linecap="round" stroke-linejoin="round"/>
<path d="M13.3828 25.6792V30.9048C13.3828 31.1739 13.601 31.3921 13.8701 31.3921H16.6025C16.8717 31.3921 17.0898 31.1739 17.0898 30.9048V25.6792H13.3828Z" stroke="#FF9957" stroke-width="1.5" stroke-miterlimit="10" stroke-linecap="round" stroke-linejoin="round"/>
<path d="M21.0793 29.5082L26.7141 25.4722C27.0565 25.2271 27.5325 25.4716 27.5325 25.8927V27.7978C27.5325 28.0027 27.6986 28.1688 27.9035 28.1688H34.7434C35.0417 28.1688 35.2834 28.4105 35.2834 28.7088V31.1486C35.2834 31.4469 35.0417 31.6887 34.7434 31.6887H27.9035C27.6986 31.6887 27.5325 31.8547 27.5325 32.0596V33.9647C27.5325 34.3858 27.0565 34.6304 26.7141 34.3853L21.0793 30.3492C20.7913 30.1429 20.7913 29.7145 21.0793 29.5082Z" stroke="#FF9957" stroke-width="1.5" stroke-miterlimit="10" stroke-linecap="round" stroke-linejoin="round"/>
<path d="M10.3633 18.9014V25.6792H21.7894C22.2269 25.6792 22.5816 26.034 22.5816 26.4714V28.432L21.0789 29.5082C20.7909 29.7145 20.7909 30.1429 21.0789 30.3491L22.5816 31.4254V35.9066C22.5816 36.3442 22.2269 36.6987 21.7894 36.6987C22.2269 36.6987 22.5816 37.0535 22.5816 37.4909V46.9262C22.5816 47.3637 22.2269 47.7183 21.7894 47.7183H41.6368V18.9014H10.3633Z" stroke="#FF9957" stroke-width="1.5" stroke-miterlimit="10" stroke-linecap="round" stroke-linejoin="round"/>
<path d="M21.0782 30.3496C20.7902 30.1434 20.7902 29.715 21.0782 29.5087L22.5807 28.4324V26.4718C22.5807 26.0343 22.2261 25.6797 21.7886 25.6797H8.68281C8.24538 25.6797 7.89062 26.0343 7.89062 26.4718V35.9071C7.89062 36.3446 8.24538 36.6992 8.68281 36.6992H21.7886C22.2261 36.6992 22.5807 36.3446 22.5807 35.9071V31.4259L21.0782 30.3496Z" stroke="#FF9957" stroke-width="1.5" stroke-miterlimit="10" stroke-linecap="round" stroke-linejoin="round"/>
<path d="M24.2217 15.3815H10.1299C9.83156 15.3815 9.58984 15.6233 9.58984 15.9215V18.3613C9.58984 18.6595 9.83156 18.9014 10.1299 18.9014H41.8682C42.1665 18.9014 42.4082 18.6595 42.4082 18.3613V15.9215C42.4082 15.6233 42.1665 15.3815 41.8682 15.3815H27.7764" stroke="#FF9957" stroke-width="1.5" stroke-miterlimit="10" stroke-linecap="round" stroke-linejoin="round"/>
<path d="M37.2721 40.6348V37.4913C37.2721 37.0539 36.9176 36.6992 36.48 36.6992H23.3742C22.9368 36.6992 22.582 37.0539 22.582 37.4913V46.9267C22.582 47.3641 22.9368 47.7188 23.3742 47.7188H36.48C36.9176 47.7188 37.2721 47.3641 37.2721 46.9267V44.1895" stroke="#FF9957" stroke-width="1.5" stroke-miterlimit="10" stroke-linecap="round" stroke-linejoin="round"/>
</g>
</svg>
