<svg width="52" height="52" viewBox="0 0 52 52" fill="none" xmlns="http://www.w3.org/2000/svg">
<path d="M27.1833 45.7029H5.6875V1.01562H31.078L40.2185 10.1562V31.4736" stroke="#FF9957" stroke-width="1.5" stroke-miterlimit="22.9256" stroke-linecap="round" stroke-linejoin="round"/>
<path d="M39.7108 10.1562H31.0781V1.52344" stroke="#FF9957" stroke-width="1.5" stroke-miterlimit="22.9256" stroke-linecap="round" stroke-linejoin="round"/>
<path d="M19.3984 16.5039H35.6485" stroke="#FF9957" stroke-width="1.5" stroke-miterlimit="22.9256" stroke-linecap="round" stroke-linejoin="round"/>
<path d="M10.2578 34.7852H16.1364" stroke="#FF9957" stroke-width="1.5" stroke-miterlimit="22.9256" stroke-linecap="round" stroke-linejoin="round"/>
<path d="M10.2578 39.355H22.015" stroke="#FF9957" stroke-width="1.5" stroke-miterlimit="22.9256" stroke-linecap="round" stroke-linejoin="round"/>
<path d="M14.8281 1.52344V7.87107C14.8281 9.1278 13.7998 10.1562 12.543 10.1562C11.2861 10.1562 10.2578 9.1279 10.2578 7.87107" stroke="#FF9957" stroke-width="1.5" stroke-miterlimit="22.9256" stroke-linecap="round" stroke-linejoin="round"/>
<path d="M36.4356 50.9845C41.8905 50.9845 46.3126 46.5624 46.3126 41.1075C46.3126 35.6526 41.8905 31.2305 36.4356 31.2305C30.9807 31.2305 26.5586 35.6526 26.5586 41.1075C26.5586 46.5624 30.9807 50.9845 36.4356 50.9845Z" stroke="#FF9957" stroke-width="1.5" stroke-miterlimit="22.9256" stroke-linecap="round" stroke-linejoin="round"/>
<path d="M39.8634 38.8223L35.293 43.3927L33.0078 41.1075" stroke="#FF9957" stroke-width="1.5" stroke-miterlimit="22.9256" stroke-linecap="round" stroke-linejoin="round"/>
<path d="M14.8281 16.5039H10.2578V21.0742H14.8281V16.5039Z" stroke="#FF9957" stroke-width="1.5" stroke-miterlimit="22.9256" stroke-linecap="round" stroke-linejoin="round"/>
<path d="M14.8281 25.6445H10.2578V30.2148H14.8281V25.6445Z" stroke="#FF9957" stroke-width="1.5" stroke-miterlimit="22.9256" stroke-linecap="round" stroke-linejoin="round"/>
<path d="M19.3984 21.0742H27.5235" stroke="#FF9957" stroke-width="1.5" stroke-miterlimit="22.9256" stroke-linecap="round" stroke-linejoin="round"/>
<path d="M19.3984 25.6445H35.6485" stroke="#FF9957" stroke-width="1.5" stroke-miterlimit="22.9256" stroke-linecap="round" stroke-linejoin="round"/>
<path d="M19.3984 30.2148H23.4609" stroke="#FF9957" stroke-width="1.5" stroke-miterlimit="22.9256" stroke-linecap="round" stroke-linejoin="round"/>
</svg>
