<svg width="42" height="42" viewBox="0 0 42 42" fill="none" xmlns="http://www.w3.org/2000/svg">
<path d="M22.3931 27.6477H33.5896C34.0095 27.6477 34.2893 27.3679 34.2893 26.948V20.6499C34.2893 20.2301 34.0095 19.9502 33.5896 19.9502H22.3931C21.9732 19.9502 21.6934 20.2301 21.6934 20.6499V26.948C21.6933 27.3678 21.9732 27.6477 22.3931 27.6477ZM23.0929 21.3497H32.8898V26.2481H23.0929V21.3497Z" fill="#FF9957"/>
<path d="M3.49907 18.5509H9.09735C9.51722 18.5509 9.7971 18.271 9.7971 17.8511C9.7971 17.4313 9.51722 17.1514 9.09735 17.1514H3.49907C3.0792 17.1514 2.79932 17.4313 2.79932 17.8511C2.79932 18.271 3.0792 18.5509 3.49907 18.5509Z" fill="#FF9957"/>
<path d="M11.8965 18.5509H17.4948C17.9147 18.5509 18.1946 18.271 18.1946 17.8511C18.1946 17.4313 17.9147 17.1514 17.4948 17.1514H11.8965C11.4767 17.1514 11.1968 17.4313 11.1968 17.8511C11.1968 18.271 11.4767 18.5509 11.8965 18.5509Z" fill="#FF9957"/>
<path d="M3.49907 21.3497H12.5962C13.0161 21.3497 13.296 21.0698 13.296 20.6499C13.296 20.2301 13.0161 19.9502 12.5962 19.9502H3.49907C3.0792 19.9502 2.79932 20.2301 2.79932 20.6499C2.79932 21.0698 3.0792 21.3497 3.49907 21.3497Z" fill="#FF9957"/>
<path d="M17.4944 19.9502H15.3951C14.9752 19.9502 14.6953 20.2301 14.6953 20.6499C14.6953 21.0698 14.9752 21.3497 15.3951 21.3497H17.4944C17.9143 21.3497 18.1942 21.0698 18.1942 20.6499C18.1942 20.2301 17.9143 19.9502 17.4944 19.9502Z" fill="#FF9957"/>
<path d="M41.3571 11.2731C40.8673 10.6433 40.2374 10.2934 39.4677 10.2235L37.7882 10.0199V8.05408V6.65457C37.7882 5.11508 36.5286 3.85547 34.9891 3.85547H2.7991C1.25961 3.85539 0 5.11499 0 6.65457V8.05416V13.6524V29.0476C0 30.3116 0.849332 31.3862 2.00528 31.7307C1.97002 33.1462 3.0411 34.3752 4.47865 34.5059L36.8086 38.1447C36.8785 38.1447 37.0185 38.1447 37.0884 38.1447C38.488 38.1447 39.7476 37.0951 39.8875 35.7655L41.9869 13.3025C42.0568 12.6027 41.8469 11.8329 41.3571 11.2731ZM1.39959 8.75391H36.3887V10.5734V12.9526H1.39959V8.75391ZM2.7991 5.25498H34.989C35.7588 5.25498 36.3886 5.88478 36.3886 6.65457V7.35432H1.39959V6.65457C1.39959 5.88478 2.02939 5.25498 2.7991 5.25498ZM1.39959 29.0475V14.3521H36.3887V29.0475C36.3887 29.8173 35.7589 30.4471 34.9891 30.4471H2.86913H2.79918C2.02939 30.4471 1.39959 29.8173 1.39959 29.0475ZM40.5873 13.0226L38.4879 35.4855C38.418 36.2553 37.7182 36.8151 36.9485 36.7451L4.68851 33.1063C3.98875 33.0364 3.49885 32.4765 3.4289 31.8467H34.989C36.5285 31.8467 37.7881 30.5871 37.7881 29.0476V13.6524V11.3431L39.3976 11.4831C39.7476 11.4831 40.0974 11.693 40.3073 11.9729C40.5173 12.2528 40.6573 12.6726 40.5873 13.0226Z" fill="#FF9957"/>
</svg>
